<svg width="2750" height="1704" viewBox="0 0 2750 1704" fill="none" xmlns="http://www.w3.org/2000/svg">
<path d="M1660.77 284.265C1658.97 299.113 1658.26 313.902 1658.73 328.387C1660.54 383.349 1685.97 448.941 1737.56 475.62C1801.86 508.865 1882.64 474.347 1950.16 496.341C2054.73 530.409 2141.67 668.742 2260.47 592.679C2348.07 536.594 2379.83 402.233 2361.27 305.544C2328.66 135.692 2174.76 6.6648 2002.61 0.281804C1892.18 -3.8122 1783.33 36.5938 1719.75 128.55C1689.13 172.833 1667.46 228.956 1660.77 284.265Z" fill="#F4F7FD"/>
<path d="M13.5378 1703.47H2650.09H2654.34C2734.93 1519.78 2766.96 1315.04 2740.7 1116.17C2727.16 1013.65 2696.77 908.744 2625.82 833.519C2580.84 785.837 2522.11 752.978 2460.94 729.411C2310.9 671.598 2140.85 667.344 1988.11 717.584C1887.7 750.61 1786.6 807.158 1682.98 786.318C1637.83 777.239 1596.86 753.867 1558.83 727.905C1355.52 589.13 1199.88 361.991 959.344 309.711C803.782 275.901 637.994 325.913 508.505 418.515C379.016 511.116 282.123 642.742 204.212 781.567C46.8689 1061.93 -33.1192 1385.38 13.5378 1703.47Z" fill="#F4F7FD"/>
<mask id="mask0_169_734" style="mask-type:luminance" maskUnits="userSpaceOnUse" x="0" y="299" width="2750" height="1405">
<path d="M13.5378 1703.47H2650.09H2654.34C2734.93 1519.78 2766.96 1315.04 2740.7 1116.17C2727.16 1013.65 2696.77 908.744 2625.82 833.519C2580.84 785.837 2522.11 752.978 2460.94 729.411C2310.9 671.598 2140.85 667.344 1988.11 717.584C1887.7 750.61 1786.6 807.158 1682.98 786.318C1637.83 777.239 1596.86 753.867 1558.83 727.905C1355.52 589.13 1199.88 361.991 959.344 309.711C803.782 275.901 637.994 325.913 508.505 418.515C379.016 511.116 282.123 642.742 204.212 781.567C46.8689 1061.93 -33.1192 1385.38 13.5378 1703.47Z" fill="white"/>
</mask>
<g mask="url(#mask0_169_734)">
<path opacity="0.1" d="M2233.54 965.926C2100.26 1048.38 1990.39 1162.83 1879.77 1273.85C1811.49 1342.38 1739.27 1412.05 1648.11 1444.44C1580.47 1468.49 1507 1470.18 1435.32 1466.38C1311.14 1459.79 1187.82 1437.41 1069.24 1399.95C924.558 1354.25 787.334 1286.36 641.1 1245.89C425.488 1186.21 193.059 1188.66 -21.2456 1252.87C-27.8976 1421.34 -35.5316 1590.2 -42.1836 1758.66C145.364 1773.09 333.595 1753.34 521.359 1742.05C1189.07 1701.91 1857.35 1768.66 2525.33 1745.48C2612.43 1742.46 2701.68 1741.9 2788.22 1731.14C2791.3 1716.72 2789.83 1699.91 2790.23 1685.11C2790.69 1668.42 2791.02 1651.72 2791.24 1635.02C2791.67 1601.61 2791.62 1568.2 2791.09 1534.8C2790.03 1468 2787.06 1401.23 2782.19 1334.59C2774.09 1223.98 2760.74 1113.76 2742.17 1004.42C2737.08 974.476 2731.36 944.353 2720.59 915.857C2713.71 897.665 2704.92 873.537 2684.51 866.953C2666.36 861.095 2643.27 862.908 2624.38 861.054C2595.12 858.181 2565.6 858.086 2536.3 860.423C2428.66 869.002 2324.85 909.435 2233.54 965.926Z" fill="#3C94F8"/>
</g>
<path d="M1752.49 999.044H533.52C520.31 999.044 509.602 988.336 509.602 975.126V167.946C509.602 154.736 520.31 144.028 533.52 144.028H1752.49C1765.7 144.028 1776.41 154.736 1776.41 167.946V975.126C1776.41 988.336 1765.7 999.044 1752.49 999.044Z" fill="#CCE6FF"/>
<mask id="mask1_169_734" style="mask-type:luminance" maskUnits="userSpaceOnUse" x="509" y="144" width="1268" height="856">
<path d="M1752.49 999.044H533.52C520.31 999.044 509.602 988.336 509.602 975.126V167.946C509.602 154.736 520.31 144.028 533.52 144.028H1752.49C1765.7 144.028 1776.41 154.736 1776.41 167.946V975.126C1776.41 988.336 1765.7 999.044 1752.49 999.044Z" fill="white"/>
</mask>
<g mask="url(#mask1_169_734)">
<path d="M1833.82 95.4229H447.266V237.36H1833.82V95.4229Z" fill="#102A54"/>
</g>
<path d="M576.652 211.986C586.222 211.986 593.98 204.228 593.98 194.658C593.98 185.088 586.222 177.33 576.652 177.33C567.082 177.33 559.324 185.088 559.324 194.658C559.324 204.228 567.082 211.986 576.652 211.986Z" fill="#3C94F8"/>
<path d="M639.59 211.986C649.16 211.986 656.918 204.228 656.918 194.658C656.918 185.088 649.16 177.33 639.59 177.33C630.02 177.33 622.262 185.088 622.262 194.658C622.262 204.228 630.02 211.986 639.59 211.986Z" fill="white"/>
<path d="M702.527 211.986C712.097 211.986 719.855 204.228 719.855 194.658C719.855 185.088 712.097 177.33 702.527 177.33C692.957 177.33 685.199 185.088 685.199 194.658C685.199 204.228 692.957 211.986 702.527 211.986Z" fill="white"/>
<path d="M1736.1 990.867H529.673C512.198 990.867 497.98 976.649 497.98 959.174V164.544C497.98 147.068 512.197 132.851 529.673 132.851H1736.1C1753.57 132.851 1767.79 147.068 1767.79 164.544V959.173C1767.79 976.649 1753.57 990.867 1736.1 990.867ZM529.673 135.851C513.852 135.851 500.98 148.723 500.98 164.544V959.173C500.98 974.994 513.852 987.866 529.673 987.866H1736.1C1751.92 987.866 1764.79 974.994 1764.79 959.173V164.544C1764.79 148.723 1751.92 135.851 1736.1 135.851H529.673Z" fill="#102A54"/>
<path d="M894.637 916.281H578.225C571.419 916.281 565.902 910.764 565.902 903.958V326.193C565.902 319.387 571.419 313.87 578.225 313.87H894.637C901.443 313.87 906.96 319.387 906.96 326.193V903.957C906.961 910.763 901.443 916.281 894.637 916.281Z" fill="#F4F7FD"/>
<path d="M713.448 510.722H592.164C589.04 510.722 586.508 508.19 586.508 505.066V347.261C586.508 344.137 589.04 341.605 592.164 341.605H713.448C716.572 341.605 719.104 344.137 719.104 347.261V505.068C719.104 508.191 716.571 510.722 713.448 510.722Z" fill="#CCE6FF"/>
<path d="M752.982 362.787C758.831 362.787 763.573 358.046 763.573 352.196C763.573 346.347 758.831 341.605 752.982 341.605C747.132 341.605 742.391 346.347 742.391 352.196C742.391 358.046 747.132 362.787 752.982 362.787Z" fill="#CCE6FF"/>
<path d="M886.614 348.394H784.958C783.708 348.394 782.695 347.381 782.695 346.131C782.695 344.881 783.708 343.868 784.958 343.868H886.614C887.864 343.868 888.877 344.881 888.877 346.131C888.876 347.381 887.863 348.394 886.614 348.394Z" fill="#CCE6FF"/>
<path d="M886.614 360.524H784.958C783.708 360.524 782.695 359.511 782.695 358.261C782.695 357.011 783.708 355.998 784.958 355.998H886.614C887.864 355.998 888.877 357.011 888.877 358.261C888.876 359.511 887.863 360.524 886.614 360.524Z" fill="#CCE6FF"/>
<path d="M886.614 372.656H784.958C783.708 372.656 782.695 371.643 782.695 370.393C782.695 369.143 783.708 368.13 784.958 368.13H886.614C887.864 368.13 888.877 369.143 888.877 370.393C888.876 371.643 887.863 372.656 886.614 372.656Z" fill="#CCE6FF"/>
<path d="M763.392 398.26C764.478 392.513 760.699 386.973 754.951 385.888C749.204 384.802 743.665 388.581 742.579 394.329C741.493 400.076 745.273 405.615 751.02 406.701C756.767 407.787 762.307 404.008 763.392 398.26Z" fill="#CCE6FF"/>
<path d="M886.614 392.452H784.958C783.708 392.452 782.695 391.439 782.695 390.189C782.695 388.939 783.708 387.926 784.958 387.926H886.614C887.864 387.926 888.877 388.939 888.877 390.189C888.876 391.438 887.863 392.452 886.614 392.452Z" fill="#CCE6FF"/>
<path d="M886.614 404.582H784.958C783.708 404.582 782.695 403.569 782.695 402.319C782.695 401.069 783.708 400.056 784.958 400.056H886.614C887.864 400.056 888.877 401.069 888.877 402.319C888.876 403.569 887.863 404.582 886.614 404.582Z" fill="#CCE6FF"/>
<path d="M886.614 416.713H784.958C783.708 416.713 782.695 415.7 782.695 414.45C782.695 413.2 783.708 412.187 784.958 412.187H886.614C887.864 412.187 888.877 413.2 888.877 414.45C888.876 415.699 887.863 416.713 886.614 416.713Z" fill="#CCE6FF"/>
<path d="M763.392 442.317C764.478 436.569 760.699 431.03 754.951 429.944C749.204 428.859 743.665 432.638 742.579 438.385C741.493 444.133 745.273 449.672 751.02 450.758C756.767 451.843 762.307 448.064 763.392 442.317Z" fill="#CCE6FF"/>
<path d="M886.618 436.507H784.962C783.712 436.507 782.699 435.494 782.699 434.244C782.699 432.994 783.712 431.981 784.962 431.981H886.618C887.868 431.981 888.881 432.994 888.881 434.244C888.88 435.494 887.867 436.507 886.618 436.507Z" fill="#CCE6FF"/>
<path d="M886.618 448.638H784.962C783.712 448.638 782.699 447.625 782.699 446.375C782.699 445.125 783.712 444.112 784.962 444.112H886.618C887.868 444.112 888.881 445.125 888.881 446.375C888.88 447.625 887.867 448.638 886.618 448.638Z" fill="#CCE6FF"/>
<path d="M886.618 460.768H784.962C783.712 460.768 782.699 459.755 782.699 458.505C782.699 457.255 783.712 456.242 784.962 456.242H886.618C887.868 456.242 888.881 457.255 888.881 458.505C888.88 459.755 887.867 460.768 886.618 460.768Z" fill="#CCE6FF"/>
<path d="M758.411 493.501C763.449 490.529 765.125 484.036 762.154 478.997C759.182 473.959 752.689 472.283 747.65 475.255C742.612 478.226 740.936 484.719 743.908 489.758C746.879 494.796 753.372 496.472 758.411 493.501Z" fill="#CCE6FF"/>
<path d="M886.614 480.564H784.958C783.708 480.564 782.695 479.551 782.695 478.301C782.695 477.051 783.708 476.038 784.958 476.038H886.614C887.864 476.038 888.877 477.051 888.877 478.301C888.876 479.551 887.863 480.564 886.614 480.564Z" fill="#CCE6FF"/>
<path d="M886.614 492.694H784.958C783.708 492.694 782.695 491.681 782.695 490.431C782.695 489.181 783.708 488.168 784.958 488.168H886.614C887.864 488.168 888.877 489.181 888.877 490.431C888.876 491.681 887.863 492.694 886.614 492.694Z" fill="#CCE6FF"/>
<path d="M886.614 504.826H784.958C783.708 504.826 782.695 503.813 782.695 502.563C782.695 501.313 783.708 500.3 784.958 500.3H886.614C887.864 500.3 888.877 501.313 888.877 502.563C888.876 503.813 887.863 504.826 886.614 504.826Z" fill="#CCE6FF"/>
<path d="M712.186 697.599H590.902C587.778 697.599 585.246 695.067 585.246 691.943V534.138C585.246 531.014 587.778 528.482 590.902 528.482H712.186C715.31 528.482 717.842 531.014 717.842 534.138V691.944C717.842 695.067 715.31 697.599 712.186 697.599Z" fill="#CCE6FF"/>
<path d="M751.72 549.664C757.569 549.664 762.311 544.923 762.311 539.073C762.311 533.224 757.569 528.482 751.72 528.482C745.871 528.482 741.129 533.224 741.129 539.073C741.129 544.923 745.871 549.664 751.72 549.664Z" fill="#CCE6FF"/>
<path d="M885.353 535.27H783.697C782.447 535.27 781.434 534.257 781.434 533.007C781.434 531.757 782.447 530.744 783.697 530.744H885.353C886.603 530.744 887.616 531.757 887.616 533.007C887.616 534.257 886.603 535.27 885.353 535.27Z" fill="#CCE6FF"/>
<path d="M885.353 547.401H783.697C782.447 547.401 781.434 546.388 781.434 545.138C781.434 543.888 782.447 542.875 783.697 542.875H885.353C886.603 542.875 887.616 543.888 887.616 545.138C887.616 546.388 886.603 547.401 885.353 547.401Z" fill="#CCE6FF"/>
<path d="M885.353 559.532H783.697C782.447 559.532 781.434 558.519 781.434 557.269C781.434 556.019 782.447 555.006 783.697 555.006H885.353C886.603 555.006 887.616 556.019 887.616 557.269C887.616 558.519 886.603 559.532 885.353 559.532Z" fill="#CCE6FF"/>
<path d="M762.019 585.534C763.357 579.84 759.825 574.139 754.131 572.801C748.437 571.464 742.736 574.995 741.399 580.69C740.061 586.384 743.593 592.084 749.287 593.422C754.981 594.76 760.682 591.228 762.019 585.534Z" fill="#CCE6FF"/>
<path d="M885.353 579.328H783.697C782.447 579.328 781.434 578.315 781.434 577.065C781.434 575.815 782.447 574.802 783.697 574.802H885.353C886.603 574.802 887.616 575.815 887.616 577.065C887.616 578.315 886.603 579.328 885.353 579.328Z" fill="#CCE6FF"/>
<path d="M885.353 591.458H783.697C782.447 591.458 781.434 590.445 781.434 589.195C781.434 587.945 782.447 586.932 783.697 586.932H885.353C886.603 586.932 887.616 587.945 887.616 589.195C887.616 590.445 886.603 591.458 885.353 591.458Z" fill="#CCE6FF"/>
<path d="M885.353 603.589H783.697C782.447 603.589 781.434 602.576 781.434 601.326C781.434 600.076 782.447 599.062 783.697 599.062H885.353C886.603 599.062 887.616 600.076 887.616 601.326C887.616 602.576 886.603 603.589 885.353 603.589Z" fill="#CCE6FF"/>
<path d="M762.019 629.59C763.357 623.895 759.825 618.195 754.131 616.857C748.437 615.519 742.736 619.051 741.399 624.745C740.061 630.44 743.593 636.14 749.287 637.478C754.981 638.816 760.682 635.284 762.019 629.59Z" fill="#CCE6FF"/>
<path d="M885.353 623.383H783.697C782.447 623.383 781.434 622.37 781.434 621.12C781.434 619.87 782.447 618.857 783.697 618.857H885.353C886.603 618.857 887.616 619.87 887.616 621.12C887.616 622.37 886.603 623.383 885.353 623.383Z" fill="#CCE6FF"/>
<path d="M885.353 635.514H783.697C782.447 635.514 781.434 634.501 781.434 633.251C781.434 632.001 782.447 630.988 783.697 630.988H885.353C886.603 630.988 887.616 632.001 887.616 633.251C887.616 634.501 886.603 635.514 885.353 635.514Z" fill="#CCE6FF"/>
<path d="M885.353 647.645H783.697C782.447 647.645 781.434 646.632 781.434 645.382C781.434 644.132 782.447 643.119 783.697 643.119H885.353C886.603 643.119 887.616 644.132 887.616 645.382C887.616 646.631 886.603 647.645 885.353 647.645Z" fill="#CCE6FF"/>
<path d="M759.197 678.735C763.333 674.599 763.333 667.893 759.197 663.757C755.061 659.621 748.355 659.621 744.219 663.757C740.083 667.893 740.083 674.599 744.219 678.735C748.355 682.871 755.061 682.871 759.197 678.735Z" fill="#CCE6FF"/>
<path d="M885.353 667.441H783.697C782.447 667.441 781.434 666.428 781.434 665.178C781.434 663.928 782.447 662.915 783.697 662.915H885.353C886.603 662.915 887.616 663.928 887.616 665.178C887.616 666.428 886.603 667.441 885.353 667.441Z" fill="#CCE6FF"/>
<path d="M885.353 679.572H783.697C782.447 679.572 781.434 678.559 781.434 677.309C781.434 676.059 782.447 675.046 783.697 675.046H885.353C886.603 675.046 887.616 676.059 887.616 677.309C887.616 678.559 886.603 679.572 885.353 679.572Z" fill="#CCE6FF"/>
<path d="M885.353 691.702H783.697C782.447 691.702 781.434 690.689 781.434 689.439C781.434 688.189 782.447 687.176 783.697 687.176H885.353C886.603 687.176 887.616 688.189 887.616 689.439C887.616 690.689 886.603 691.702 885.353 691.702Z" fill="#CCE6FF"/>
<path d="M710.928 884.475H589.644C586.52 884.475 583.988 881.943 583.988 878.819V721.014C583.988 717.89 586.52 715.358 589.644 715.358H710.928C714.052 715.358 716.584 717.89 716.584 721.014V878.819C716.584 881.943 714.051 884.475 710.928 884.475Z" fill="#CCE6FF"/>
<path d="M750.462 736.54C756.311 736.54 761.053 731.799 761.053 725.949C761.053 720.1 756.311 715.358 750.462 715.358C744.613 715.358 739.871 720.1 739.871 725.949C739.871 731.799 744.613 736.54 750.462 736.54Z" fill="#CCE6FF"/>
<path d="M884.095 722.147H782.439C781.189 722.147 780.176 721.134 780.176 719.884C780.176 718.634 781.189 717.621 782.439 717.621H884.095C885.345 717.621 886.358 718.634 886.358 719.884C886.358 721.134 885.345 722.147 884.095 722.147Z" fill="#CCE6FF"/>
<path d="M884.095 734.277H782.439C781.189 734.277 780.176 733.264 780.176 732.014C780.176 730.764 781.189 729.751 782.439 729.751H884.095C885.345 729.751 886.358 730.764 886.358 732.014C886.358 733.264 885.345 734.277 884.095 734.277Z" fill="#CCE6FF"/>
<path d="M884.095 746.409H782.439C781.189 746.409 780.176 745.396 780.176 744.146C780.176 742.896 781.189 741.883 782.439 741.883H884.095C885.345 741.883 886.358 742.896 886.358 744.146C886.358 745.396 885.345 746.409 884.095 746.409Z" fill="#CCE6FF"/>
<path d="M760.762 772.407C762.099 766.713 758.568 761.012 752.873 759.675C747.179 758.337 741.479 761.869 740.141 767.563C738.803 773.257 742.335 778.957 748.029 780.295C753.723 781.633 759.424 778.101 760.762 772.407Z" fill="#CCE6FF"/>
<path d="M884.095 766.204H782.439C781.189 766.204 780.176 765.191 780.176 763.941C780.176 762.691 781.189 761.678 782.439 761.678H884.095C885.345 761.678 886.358 762.691 886.358 763.941C886.358 765.191 885.345 766.204 884.095 766.204Z" fill="#CCE6FF"/>
<path d="M884.095 778.335H782.439C781.189 778.335 780.176 777.322 780.176 776.072C780.176 774.822 781.189 773.809 782.439 773.809H884.095C885.345 773.809 886.358 774.822 886.358 776.072C886.358 777.322 885.345 778.335 884.095 778.335Z" fill="#CCE6FF"/>
<path d="M884.095 790.464H782.439C781.189 790.464 780.176 789.451 780.176 788.201C780.176 786.951 781.189 785.938 782.439 785.938H884.095C885.345 785.938 886.358 786.951 886.358 788.201C886.358 789.451 885.345 790.464 884.095 790.464Z" fill="#CCE6FF"/>
<path d="M760.762 816.463C762.099 810.769 758.568 805.068 752.873 803.73C747.179 802.392 741.479 805.924 740.141 811.618C738.803 817.313 742.335 823.013 748.029 824.351C753.723 825.689 759.424 822.157 760.762 816.463Z" fill="#CCE6FF"/>
<path d="M884.095 810.26H782.439C781.189 810.26 780.176 809.247 780.176 807.997C780.176 806.747 781.189 805.734 782.439 805.734H884.095C885.345 805.734 886.358 806.747 886.358 807.997C886.358 809.247 885.345 810.26 884.095 810.26Z" fill="#CCE6FF"/>
<path d="M884.095 822.391H782.439C781.189 822.391 780.176 821.378 780.176 820.128C780.176 818.878 781.189 817.865 782.439 817.865H884.095C885.345 817.865 886.358 818.878 886.358 820.128C886.358 821.377 885.345 822.391 884.095 822.391Z" fill="#CCE6FF"/>
<path d="M884.095 834.521H782.439C781.189 834.521 780.176 833.508 780.176 832.258C780.176 831.008 781.189 829.995 782.439 829.995H884.095C885.345 829.995 886.358 831.008 886.358 832.258C886.358 833.508 885.345 834.521 884.095 834.521Z" fill="#CCE6FF"/>
<path d="M757.939 865.609C762.075 861.473 762.075 854.767 757.939 850.631C753.803 846.495 747.098 846.495 742.962 850.631C738.826 854.767 738.826 861.473 742.962 865.609C747.098 869.745 753.803 869.745 757.939 865.609Z" fill="#CCE6FF"/>
<path d="M884.095 854.316H782.439C781.189 854.316 780.176 853.303 780.176 852.053C780.176 850.803 781.189 849.79 782.439 849.79H884.095C885.345 849.79 886.358 850.803 886.358 852.053C886.358 853.303 885.345 854.316 884.095 854.316Z" fill="#CCE6FF"/>
<path d="M884.095 866.447H782.439C781.189 866.447 780.176 865.434 780.176 864.184C780.176 862.934 781.189 861.921 782.439 861.921H884.095C885.345 861.921 886.358 862.934 886.358 864.184C886.358 865.434 885.345 866.447 884.095 866.447Z" fill="#CCE6FF"/>
<path d="M884.095 878.579H782.439C781.189 878.579 780.176 877.566 780.176 876.316C780.176 875.066 781.189 874.053 782.439 874.053H884.095C885.345 874.053 886.358 875.066 886.358 876.316C886.358 877.566 885.345 878.579 884.095 878.579Z" fill="#CCE6FF"/>
<path d="M692.803 429.31H610.81C608.203 429.31 606.09 427.197 606.09 424.59V360.309C606.09 357.702 608.203 355.589 610.81 355.589H692.803C695.41 355.589 697.523 357.702 697.523 360.309V424.591C697.522 427.197 695.409 429.31 692.803 429.31Z" fill="#F4F7FD"/>
<path d="M694.712 446.375H608.902C607.349 446.375 606.09 445.116 606.09 443.563V443.121C606.09 441.568 607.349 440.309 608.902 440.309H694.712C696.265 440.309 697.524 441.568 697.524 443.121V443.563C697.523 445.116 696.264 446.375 694.712 446.375Z" fill="#F4F7FD"/>
<path d="M694.712 459.275H608.902C607.349 459.275 606.09 458.016 606.09 456.463V456.021C606.09 454.468 607.349 453.209 608.902 453.209H694.712C696.265 453.209 697.524 454.468 697.524 456.021V456.463C697.523 458.016 696.264 459.275 694.712 459.275Z" fill="#F4F7FD"/>
<path d="M694.712 472.175H608.902C607.349 472.175 606.09 470.916 606.09 469.363V468.921C606.09 467.368 607.349 466.109 608.902 466.109H694.712C696.265 466.109 697.524 467.368 697.524 468.921V469.363C697.523 470.917 696.264 472.175 694.712 472.175Z" fill="#F4F7FD"/>
<path d="M694.712 485.076H608.902C607.349 485.076 606.09 483.817 606.09 482.264V481.822C606.09 480.269 607.349 479.01 608.902 479.01H694.712C696.265 479.01 697.524 480.269 697.524 481.822V482.264C697.523 483.817 696.264 485.076 694.712 485.076Z" fill="#F4F7FD"/>
<path d="M694.712 497.976H608.902C607.349 497.976 606.09 496.717 606.09 495.164V494.722C606.09 493.169 607.349 491.91 608.902 491.91H694.712C696.265 491.91 697.524 493.169 697.524 494.722V495.164C697.523 496.717 696.264 497.976 694.712 497.976Z" fill="#F4F7FD"/>
<path d="M692.803 615.567H610.81C608.203 615.567 606.09 613.454 606.09 610.847V546.566C606.09 543.959 608.203 541.846 610.81 541.846H692.803C695.41 541.846 697.523 543.959 697.523 546.566V610.847C697.522 613.454 695.409 615.567 692.803 615.567Z" fill="#F4F7FD"/>
<path d="M694.712 632.631H608.902C607.349 632.631 606.09 631.372 606.09 629.819V629.377C606.09 627.824 607.349 626.565 608.902 626.565H694.712C696.265 626.565 697.524 627.824 697.524 629.377V629.819C697.523 631.372 696.264 632.631 694.712 632.631Z" fill="#F4F7FD"/>
<path d="M694.712 645.532H608.902C607.349 645.532 606.09 644.273 606.09 642.72V642.278C606.09 640.725 607.349 639.466 608.902 639.466H694.712C696.265 639.466 697.524 640.725 697.524 642.278V642.72C697.523 644.273 696.264 645.532 694.712 645.532Z" fill="#F4F7FD"/>
<path d="M694.712 658.433H608.902C607.349 658.433 606.09 657.174 606.09 655.621V655.179C606.09 653.626 607.349 652.367 608.902 652.367H694.712C696.265 652.367 697.524 653.626 697.524 655.179V655.621C697.523 657.174 696.264 658.433 694.712 658.433Z" fill="#F4F7FD"/>
<path d="M694.712 671.333H608.902C607.349 671.333 606.09 670.074 606.09 668.521V668.079C606.09 666.526 607.349 665.267 608.902 665.267H694.712C696.265 665.267 697.524 666.526 697.524 668.079V668.521C697.523 670.074 696.264 671.333 694.712 671.333Z" fill="#F4F7FD"/>
<path d="M694.712 684.233H608.902C607.349 684.233 606.09 682.974 606.09 681.421V680.979C606.09 679.426 607.349 678.167 608.902 678.167H694.712C696.265 678.167 697.524 679.426 697.524 680.979V681.421C697.523 682.974 696.264 684.233 694.712 684.233Z" fill="#F4F7FD"/>
<path d="M692.803 801.825H610.81C608.203 801.825 606.09 799.712 606.09 797.105V732.824C606.09 730.217 608.203 728.104 610.81 728.104H692.803C695.41 728.104 697.523 730.217 697.523 732.824V797.105C697.522 799.712 695.409 801.825 692.803 801.825Z" fill="#F4F7FD"/>
<path d="M694.712 818.889H608.902C607.349 818.889 606.09 817.63 606.09 816.077V815.635C606.09 814.082 607.349 812.823 608.902 812.823H694.712C696.265 812.823 697.524 814.082 697.524 815.635V816.077C697.523 817.63 696.264 818.889 694.712 818.889Z" fill="#F4F7FD"/>
<path d="M694.712 831.79H608.902C607.349 831.79 606.09 830.531 606.09 828.978V828.536C606.09 826.983 607.349 825.724 608.902 825.724H694.712C696.265 825.724 697.524 826.983 697.524 828.536V828.978C697.523 830.531 696.264 831.79 694.712 831.79Z" fill="#F4F7FD"/>
<path d="M694.712 844.689H608.902C607.349 844.689 606.09 843.43 606.09 841.877V841.435C606.09 839.882 607.349 838.623 608.902 838.623H694.712C696.265 838.623 697.524 839.882 697.524 841.435V841.877C697.523 843.431 696.264 844.689 694.712 844.689Z" fill="#F4F7FD"/>
<path d="M694.712 857.59H608.902C607.349 857.59 606.09 856.331 606.09 854.778V854.336C606.09 852.783 607.349 851.524 608.902 851.524H694.712C696.265 851.524 697.524 852.783 697.524 854.336V854.778C697.523 856.331 696.264 857.59 694.712 857.59Z" fill="#F4F7FD"/>
<path d="M694.712 870.491H608.902C607.349 870.491 606.09 869.232 606.09 867.679V867.237C606.09 865.684 607.349 864.425 608.902 864.425H694.712C696.265 864.425 697.524 865.684 697.524 867.237V867.679C697.523 869.232 696.264 870.491 694.712 870.491Z" fill="#F4F7FD"/>
<path d="M1687.54 916.281H1371.13C1364.33 916.281 1358.81 910.764 1358.81 903.958V326.193C1358.81 319.387 1364.33 313.87 1371.13 313.87H1687.54C1694.35 313.87 1699.87 319.387 1699.87 326.193V903.957C1699.87 910.763 1694.35 916.281 1687.54 916.281Z" fill="#F4F7FD"/>
<path d="M1669.73 341.628H1570.74C1568.94 341.628 1567.47 340.164 1567.47 338.357C1567.47 336.551 1568.94 335.086 1570.74 335.086H1669.73C1671.54 335.086 1673 336.55 1673 338.357C1673 340.163 1671.54 341.628 1669.73 341.628Z" fill="#CCE6FF"/>
<path d="M1669.73 356.587H1570.74C1568.94 356.587 1567.47 355.123 1567.47 353.316C1567.47 351.51 1568.94 350.045 1570.74 350.045H1669.73C1671.54 350.045 1673 351.509 1673 353.316C1673 355.123 1671.54 356.587 1669.73 356.587Z" fill="#CCE6FF"/>
<path d="M1669.73 371.546H1570.74C1568.94 371.546 1567.47 370.082 1567.47 368.275C1567.47 366.469 1568.94 365.004 1570.74 365.004H1669.73C1671.54 365.004 1673 366.468 1673 368.275C1673 370.082 1671.54 371.546 1669.73 371.546Z" fill="#CCE6FF"/>
<path d="M1669.73 386.506H1570.74C1568.94 386.506 1567.47 385.042 1567.47 383.235C1567.47 381.429 1568.94 379.964 1570.74 379.964H1669.73C1671.54 379.964 1673 381.428 1673 383.235C1673 385.042 1671.54 386.506 1669.73 386.506Z" fill="#CCE6FF"/>
<path d="M1669.73 401.465H1570.74C1568.94 401.465 1567.47 400.001 1567.47 398.194C1567.47 396.388 1568.94 394.923 1570.74 394.923H1669.73C1671.54 394.923 1673 396.387 1673 398.194C1673 400.001 1671.54 401.465 1669.73 401.465Z" fill="#CCE6FF"/>
<path d="M1669.73 416.425H1570.74C1568.94 416.425 1567.47 414.961 1567.47 413.154C1567.47 411.348 1568.94 409.883 1570.74 409.883H1669.73C1671.54 409.883 1673 411.347 1673 413.154C1673 414.96 1671.54 416.425 1669.73 416.425Z" fill="#CCE6FF"/>
<path d="M1669.73 431.384H1570.74C1568.94 431.384 1567.47 429.92 1567.47 428.113C1567.47 426.307 1568.94 424.842 1570.74 424.842H1669.73C1671.54 424.842 1673 426.306 1673 428.113C1673 429.92 1671.54 431.384 1669.73 431.384Z" fill="#CCE6FF"/>
<path d="M1669.73 715.813H1570.74C1568.94 715.813 1567.47 714.349 1567.47 712.542C1567.47 710.736 1568.94 709.271 1570.74 709.271H1669.73C1671.54 709.271 1673 710.735 1673 712.542C1673 714.348 1671.54 715.813 1669.73 715.813Z" fill="#CCE6FF"/>
<path d="M1669.73 730.772H1570.74C1568.94 730.772 1567.47 729.308 1567.47 727.501C1567.47 725.695 1568.94 724.23 1570.74 724.23H1669.73C1671.54 724.23 1673 725.694 1673 727.501C1673 729.308 1671.54 730.772 1669.73 730.772Z" fill="#CCE6FF"/>
<path d="M1669.73 745.731H1570.74C1568.94 745.731 1567.47 744.267 1567.47 742.46C1567.47 740.654 1568.94 739.189 1570.74 739.189H1669.73C1671.54 739.189 1673 740.653 1673 742.46C1673 744.267 1671.54 745.731 1669.73 745.731Z" fill="#CCE6FF"/>
<path d="M1669.73 760.692H1570.74C1568.94 760.692 1567.47 759.228 1567.47 757.421C1567.47 755.615 1568.94 754.15 1570.74 754.15H1669.73C1671.54 754.15 1673 755.614 1673 757.421C1673 759.228 1671.54 760.692 1669.73 760.692Z" fill="#CCE6FF"/>
<path d="M1669.73 775.651H1570.74C1568.94 775.651 1567.47 774.187 1567.47 772.38C1567.47 770.574 1568.94 769.109 1570.74 769.109H1669.73C1671.54 769.109 1673 770.573 1673 772.38C1673 774.187 1671.54 775.651 1669.73 775.651Z" fill="#CCE6FF"/>
<path d="M1669.73 790.611H1570.74C1568.94 790.611 1567.47 789.147 1567.47 787.34C1567.47 785.534 1568.94 784.069 1570.74 784.069H1669.73C1671.54 784.069 1673 785.533 1673 787.34C1673 789.146 1671.54 790.611 1669.73 790.611Z" fill="#CCE6FF"/>
<path d="M1669.73 805.57H1570.74C1568.94 805.57 1567.47 804.106 1567.47 802.299C1567.47 800.493 1568.94 799.028 1570.74 799.028H1669.73C1671.54 799.028 1673 800.492 1673 802.299C1673 804.106 1671.54 805.57 1669.73 805.57Z" fill="#CCE6FF"/>
<path d="M1669.73 822.363H1570.74C1568.94 822.363 1567.47 820.899 1567.47 819.092C1567.47 817.286 1568.94 815.821 1570.74 815.821H1669.73C1671.54 815.821 1673 817.285 1673 819.092C1673 820.899 1671.54 822.363 1669.73 822.363Z" fill="#CCE6FF"/>
<path d="M1669.73 837.323H1570.74C1568.94 837.323 1567.47 835.859 1567.47 834.052C1567.47 832.246 1568.94 830.781 1570.74 830.781H1669.73C1671.54 830.781 1673 832.245 1673 834.052C1673 835.858 1671.54 837.323 1669.73 837.323Z" fill="#CCE6FF"/>
<path d="M1669.73 852.282H1570.74C1568.94 852.282 1567.47 850.818 1567.47 849.011C1567.47 847.205 1568.94 845.74 1570.74 845.74H1669.73C1671.54 845.74 1673 847.204 1673 849.011C1673 850.818 1671.54 852.282 1669.73 852.282Z" fill="#CCE6FF"/>
<path d="M1669.73 867.242H1570.74C1568.94 867.242 1567.47 865.778 1567.47 863.971C1567.47 862.165 1568.94 860.7 1570.74 860.7H1669.73C1671.54 860.7 1673 862.164 1673 863.971C1673 865.777 1671.54 867.242 1669.73 867.242Z" fill="#CCE6FF"/>
<path d="M1669.73 882.201H1570.74C1568.94 882.201 1567.47 880.737 1567.47 878.93C1567.47 877.124 1568.94 875.659 1570.74 875.659H1669.73C1671.54 875.659 1673 877.123 1673 878.93C1673 880.737 1671.54 882.201 1669.73 882.201Z" fill="#CCE6FF"/>
<path d="M1669.73 897.161H1570.74C1568.94 897.161 1567.47 895.697 1567.47 893.89C1567.47 892.084 1568.94 890.619 1570.74 890.619H1669.73C1671.54 890.619 1673 892.083 1673 893.89C1673 895.696 1671.54 897.161 1669.73 897.161Z" fill="#CCE6FF"/>
<path d="M1669.73 446.344H1570.74C1568.94 446.344 1567.47 444.88 1567.47 443.073C1567.47 441.267 1568.94 439.802 1570.74 439.802H1669.73C1671.54 439.802 1673 441.266 1673 443.073C1673 444.879 1671.54 446.344 1669.73 446.344Z" fill="#CCE6FF"/>
<path d="M1669.73 461.303H1570.74C1568.94 461.303 1567.47 459.839 1567.47 458.032C1567.47 456.226 1568.94 454.761 1570.74 454.761H1669.73C1671.54 454.761 1673 456.225 1673 458.032C1673 459.839 1671.54 461.303 1669.73 461.303Z" fill="#CCE6FF"/>
<path d="M1669.73 476.263H1570.74C1568.94 476.263 1567.47 474.799 1567.47 472.992C1567.47 471.186 1568.94 469.721 1570.74 469.721H1669.73C1671.54 469.721 1673 471.185 1673 472.992C1673 474.798 1671.54 476.263 1669.73 476.263Z" fill="#CCE6FF"/>
<path d="M1669.73 491.222H1570.74C1568.94 491.222 1567.47 489.758 1567.47 487.951C1567.47 486.145 1568.94 484.68 1570.74 484.68H1669.73C1671.54 484.68 1673 486.144 1673 487.951C1673 489.758 1671.54 491.222 1669.73 491.222Z" fill="#CCE6FF"/>
<path d="M1669.73 506.181H1570.74C1568.94 506.181 1567.47 504.717 1567.47 502.91C1567.47 501.104 1568.94 499.639 1570.74 499.639H1669.73C1671.54 499.639 1673 501.103 1673 502.91C1673 504.717 1671.54 506.181 1669.73 506.181Z" fill="#CCE6FF"/>
<path d="M1669.73 521.141H1570.74C1568.94 521.141 1567.47 519.677 1567.47 517.87C1567.47 516.064 1568.94 514.599 1570.74 514.599H1669.73C1671.54 514.599 1673 516.063 1673 517.87C1673 519.677 1671.54 521.141 1669.73 521.141Z" fill="#CCE6FF"/>
<path d="M1669.73 536.1H1570.74C1568.94 536.1 1567.47 534.636 1567.47 532.829C1567.47 531.023 1568.94 529.558 1570.74 529.558H1669.73C1671.54 529.558 1673 531.022 1673 532.829C1673 534.636 1671.54 536.1 1669.73 536.1Z" fill="#CCE6FF"/>
<path d="M1669.73 551.06H1570.74C1568.94 551.06 1567.47 549.596 1567.47 547.789C1567.47 545.983 1568.94 544.518 1570.74 544.518H1669.73C1671.54 544.518 1673 545.982 1673 547.789C1673 549.596 1671.54 551.06 1669.73 551.06Z" fill="#CCE6FF"/>
<path d="M1669.73 566.019H1570.74C1568.94 566.019 1567.47 564.555 1567.47 562.748C1567.47 560.942 1568.94 559.477 1570.74 559.477H1669.73C1671.54 559.477 1673 560.941 1673 562.748C1673 564.555 1671.54 566.019 1669.73 566.019Z" fill="#CCE6FF"/>
<path d="M1535.93 599.902H1388.94C1387.13 599.902 1385.67 598.438 1385.67 596.631C1385.67 594.825 1387.13 593.36 1388.94 593.36H1535.93C1537.74 593.36 1539.2 594.824 1539.2 596.631C1539.2 598.438 1537.74 599.902 1535.93 599.902Z" fill="#CCE6FF"/>
<path d="M1535.93 614.862H1388.94C1387.13 614.862 1385.67 613.398 1385.67 611.591C1385.67 609.785 1387.13 608.32 1388.94 608.32H1535.93C1537.74 608.32 1539.2 609.784 1539.2 611.591C1539.2 613.398 1537.74 614.862 1535.93 614.862Z" fill="#CCE6FF"/>
<path d="M1535.93 629.821H1388.94C1387.13 629.821 1385.67 628.357 1385.67 626.55C1385.67 624.744 1387.13 623.279 1388.94 623.279H1535.93C1537.74 623.279 1539.2 624.743 1539.2 626.55C1539.2 628.357 1537.74 629.821 1535.93 629.821Z" fill="#CCE6FF"/>
<path d="M1535.93 644.781H1388.94C1387.13 644.781 1385.67 643.317 1385.67 641.51C1385.67 639.704 1387.13 638.239 1388.94 638.239H1535.93C1537.74 638.239 1539.2 639.703 1539.2 641.51C1539.2 643.317 1537.74 644.781 1535.93 644.781Z" fill="#CCE6FF"/>
<path d="M1535.93 659.74H1388.94C1387.13 659.74 1385.67 658.276 1385.67 656.469C1385.67 654.663 1387.13 653.198 1388.94 653.198H1535.93C1537.74 653.198 1539.2 654.662 1539.2 656.469C1539.2 658.276 1537.74 659.74 1535.93 659.74Z" fill="#CCE6FF"/>
<path d="M1535.93 674.7H1388.94C1387.13 674.7 1385.67 673.236 1385.67 671.429C1385.67 669.623 1387.13 668.158 1388.94 668.158H1535.93C1537.74 668.158 1539.2 669.622 1539.2 671.429C1539.2 673.235 1537.74 674.7 1535.93 674.7Z" fill="#CCE6FF"/>
<path d="M1535.93 689.659H1388.94C1387.13 689.659 1385.67 688.195 1385.67 686.388C1385.67 684.582 1387.13 683.117 1388.94 683.117H1535.93C1537.74 683.117 1539.2 684.581 1539.2 686.388C1539.2 688.195 1537.74 689.659 1535.93 689.659Z" fill="#CCE6FF"/>
<path d="M1535.93 704.619H1388.94C1387.13 704.619 1385.67 703.155 1385.67 701.348C1385.67 699.542 1387.13 698.077 1388.94 698.077H1535.93C1537.74 698.077 1539.2 699.541 1539.2 701.348C1539.2 703.154 1537.74 704.619 1535.93 704.619Z" fill="#CCE6FF"/>
<path d="M1535.93 719.578H1388.94C1387.13 719.578 1385.67 718.114 1385.67 716.307C1385.67 714.501 1387.13 713.036 1388.94 713.036H1535.93C1537.74 713.036 1539.2 714.5 1539.2 716.307C1539.2 718.114 1537.74 719.578 1535.93 719.578Z" fill="#CCE6FF"/>
<path d="M1535.93 734.538H1388.94C1387.13 734.538 1385.67 733.074 1385.67 731.267C1385.67 729.461 1387.13 727.996 1388.94 727.996H1535.93C1537.74 727.996 1539.2 729.46 1539.2 731.267C1539.2 733.073 1537.74 734.538 1535.93 734.538Z" fill="#CCE6FF"/>
<path d="M1535.93 749.497H1388.94C1387.13 749.497 1385.67 748.033 1385.67 746.226C1385.67 744.42 1387.13 742.955 1388.94 742.955H1535.93C1537.74 742.955 1539.2 744.419 1539.2 746.226C1539.2 748.033 1537.74 749.497 1535.93 749.497Z" fill="#CCE6FF"/>
<path d="M1535.93 764.456H1388.94C1387.13 764.456 1385.67 762.992 1385.67 761.185C1385.67 759.379 1387.13 757.914 1388.94 757.914H1535.93C1537.74 757.914 1539.2 759.378 1539.2 761.185C1539.2 762.992 1537.74 764.456 1535.93 764.456Z" fill="#CCE6FF"/>
<path d="M1535.93 779.416H1388.94C1387.13 779.416 1385.67 777.952 1385.67 776.145C1385.67 774.339 1387.13 772.874 1388.94 772.874H1535.93C1537.74 772.874 1539.2 774.338 1539.2 776.145C1539.2 777.952 1537.74 779.416 1535.93 779.416Z" fill="#CCE6FF"/>
<path d="M1535.93 794.375H1388.94C1387.13 794.375 1385.67 792.911 1385.67 791.104C1385.67 789.298 1387.13 787.833 1388.94 787.833H1535.93C1537.74 787.833 1539.2 789.297 1539.2 791.104C1539.2 792.911 1537.74 794.375 1535.93 794.375Z" fill="#CCE6FF"/>
<path d="M1535.93 809.335H1388.94C1387.13 809.335 1385.67 807.871 1385.67 806.064C1385.67 804.258 1387.13 802.793 1388.94 802.793H1535.93C1537.74 802.793 1539.2 804.257 1539.2 806.064C1539.2 807.87 1537.74 809.335 1535.93 809.335Z" fill="#CCE6FF"/>
<path d="M1535.93 824.294H1388.94C1387.13 824.294 1385.67 822.83 1385.67 821.023C1385.67 819.217 1387.13 817.752 1388.94 817.752H1535.93C1537.74 817.752 1539.2 819.216 1539.2 821.023C1539.2 822.83 1537.74 824.294 1535.93 824.294Z" fill="#CCE6FF"/>
<path d="M1535.93 838.266H1388.94C1387.13 838.266 1385.67 836.802 1385.67 834.995C1385.67 833.189 1387.13 831.724 1388.94 831.724H1535.93C1537.74 831.724 1539.2 833.188 1539.2 834.995C1539.2 836.802 1537.74 838.266 1535.93 838.266Z" fill="#CCE6FF"/>
<path d="M1535.93 853.225H1388.94C1387.13 853.225 1385.67 851.761 1385.67 849.954C1385.67 848.148 1387.13 846.683 1388.94 846.683H1535.93C1537.74 846.683 1539.2 848.147 1539.2 849.954C1539.2 851.761 1537.74 853.225 1535.93 853.225Z" fill="#CCE6FF"/>
<path d="M1535.93 868.185H1388.94C1387.13 868.185 1385.67 866.721 1385.67 864.914C1385.67 863.108 1387.13 861.643 1388.94 861.643H1535.93C1537.74 861.643 1539.2 863.107 1539.2 864.914C1539.2 866.721 1537.74 868.185 1535.93 868.185Z" fill="#CCE6FF"/>
<path d="M1535.93 883.144H1388.94C1387.13 883.144 1385.67 881.68 1385.67 879.873C1385.67 878.067 1387.13 876.602 1388.94 876.602H1535.93C1537.74 876.602 1539.2 878.066 1539.2 879.873C1539.2 881.68 1537.74 883.144 1535.93 883.144Z" fill="#CCE6FF"/>
<path d="M1535.93 898.104H1388.94C1387.13 898.104 1385.67 896.64 1385.67 894.833C1385.67 893.027 1387.13 891.562 1388.94 891.562H1535.93C1537.74 891.562 1539.2 893.026 1539.2 894.833C1539.2 896.64 1537.74 898.104 1535.93 898.104Z" fill="#CCE6FF"/>
<path d="M1670.2 690.469H1570.28C1568.73 690.469 1567.47 689.213 1567.47 687.665V595.348C1567.47 593.799 1568.73 592.544 1570.28 592.544H1670.2C1671.75 592.544 1673 593.799 1673 595.348V687.665C1673 689.213 1671.75 690.469 1670.2 690.469Z" fill="#CCE6FF"/>
<path d="M1535.42 566.019H1389.45C1387.36 566.019 1385.67 564.325 1385.67 562.235V338.87C1385.67 336.78 1387.36 335.086 1389.45 335.086H1535.42C1537.51 335.086 1539.2 336.78 1539.2 338.87V562.235C1539.2 564.325 1537.51 566.019 1535.42 566.019Z" fill="#CCE6FF"/>
<path d="M1522.48 416.424H1402.39C1401.13 416.424 1400.11 415.402 1400.11 414.141V351.763C1400.11 350.502 1401.13 349.479 1402.39 349.479H1522.48C1523.74 349.479 1524.77 350.502 1524.77 351.763V414.141C1524.77 415.402 1523.74 416.424 1522.48 416.424Z" fill="#F4F7FD"/>
<path d="M1522.48 491.505H1402.39C1401.13 491.505 1400.11 490.482 1400.11 489.221V426.844C1400.11 425.583 1401.13 424.56 1402.39 424.56H1522.48C1523.74 424.56 1524.77 425.583 1524.77 426.844V489.221C1524.77 490.482 1523.74 491.505 1522.48 491.505Z" fill="#F4F7FD"/>
<path d="M1456.8 555.216H1402.09C1400.99 555.216 1400.11 554.329 1400.11 553.235V501.622C1400.11 500.528 1400.99 499.641 1402.09 499.641H1456.8C1457.9 499.641 1458.78 500.528 1458.78 501.622V553.235C1458.78 554.329 1457.9 555.216 1456.8 555.216Z" fill="#F4F7FD"/>
<path d="M1522.76 555.216H1466.67C1465.56 555.216 1464.66 554.318 1464.66 553.211V501.646C1464.66 500.538 1465.56 499.641 1466.67 499.641H1522.76C1523.87 499.641 1524.77 500.539 1524.77 501.646V553.211C1524.77 554.318 1523.87 555.216 1522.76 555.216Z" fill="#F4F7FD"/>
<path d="M1291.09 916.281H974.678C967.872 916.281 962.355 910.764 962.355 903.958V326.193C962.355 319.387 967.872 313.87 974.678 313.87H1291.09C1297.9 313.87 1303.41 319.387 1303.41 326.193V903.957C1303.41 910.763 1297.9 916.281 1291.09 916.281Z" fill="#F4F7FD"/>
<path d="M1118.12 476.038H995.069C991.933 476.038 989.391 473.496 989.391 470.36V347.305C989.391 344.169 991.933 341.627 995.069 341.627H1118.12C1121.26 341.627 1123.8 344.169 1123.8 347.305V470.36C1123.8 473.496 1121.26 476.038 1118.12 476.038Z" fill="#CCE6FF"/>
<path d="M1277.04 349.794H1181.65C1180.02 349.794 1178.69 348.466 1178.69 346.828V344.594C1178.69 342.956 1180.02 341.628 1181.65 341.628H1277.04C1278.68 341.628 1280 342.956 1280 344.594V346.828C1280 348.466 1278.68 349.794 1277.04 349.794Z" fill="#CCE6FF"/>
<path d="M1277.04 364.038H1181.65C1180.02 364.038 1178.69 362.71 1178.69 361.072V358.838C1178.69 357.2 1180.02 355.872 1181.65 355.872H1277.04C1278.68 355.872 1280 357.2 1280 358.838V361.072C1280 362.71 1278.68 364.038 1277.04 364.038Z" fill="#CCE6FF"/>
<path d="M1277.04 378.282H1181.65C1180.02 378.282 1178.69 376.954 1178.69 375.316V373.082C1178.69 371.444 1180.02 370.116 1181.65 370.116H1277.04C1278.68 370.116 1280 371.444 1280 373.082V375.316C1280 376.954 1278.68 378.282 1277.04 378.282Z" fill="#CCE6FF"/>
<path d="M1277.04 392.526H1181.65C1180.02 392.526 1178.69 391.198 1178.69 389.56V387.326C1178.69 385.688 1180.02 384.36 1181.65 384.36H1277.04C1278.68 384.36 1280 385.688 1280 387.326V389.56C1280 391.198 1278.68 392.526 1277.04 392.526Z" fill="#CCE6FF"/>
<path d="M1277.04 406.771H1181.65C1180.02 406.771 1178.69 405.443 1178.69 403.805V401.57C1178.69 399.932 1180.02 398.604 1181.65 398.604H1277.04C1278.68 398.604 1280 399.932 1280 401.57V403.805C1280 405.444 1278.68 406.771 1277.04 406.771Z" fill="#CCE6FF"/>
<path d="M1277.04 421.014H1181.65C1180.02 421.014 1178.69 419.686 1178.69 418.048V415.814C1178.69 414.176 1180.02 412.848 1181.65 412.848H1277.04C1278.68 412.848 1280 414.176 1280 415.814V418.048C1280 419.687 1278.68 421.014 1277.04 421.014Z" fill="#CCE6FF"/>
<path d="M1277.04 435.259H1181.65C1180.02 435.259 1178.69 433.931 1178.69 432.293V430.059C1178.69 428.421 1180.02 427.093 1181.65 427.093H1277.04C1278.68 427.093 1280 428.421 1280 430.059V432.293C1280 433.931 1278.68 435.259 1277.04 435.259Z" fill="#CCE6FF"/>
<path d="M1277.04 449.503H1181.65C1180.02 449.503 1178.69 448.175 1178.69 446.537V444.303C1178.69 442.665 1180.02 441.337 1181.65 441.337H1277.04C1278.68 441.337 1280 442.665 1280 444.303V446.537C1280 448.175 1278.68 449.503 1277.04 449.503Z" fill="#CCE6FF"/>
<path d="M1277.04 463.747H1181.65C1180.02 463.747 1178.69 462.419 1178.69 460.781V458.547C1178.69 456.909 1180.02 455.581 1181.65 455.581H1277.04C1278.68 455.581 1280 456.909 1280 458.547V460.781C1280 462.419 1278.68 463.747 1277.04 463.747Z" fill="#CCE6FF"/>
<path d="M1277.04 477.991H1181.65C1180.02 477.991 1178.69 476.663 1178.69 475.025V472.791C1178.69 471.153 1180.02 469.825 1181.65 469.825H1277.04C1278.68 469.825 1280 471.153 1280 472.791V475.025C1280 476.663 1278.68 477.991 1277.04 477.991Z" fill="#CCE6FF"/>
<path d="M1149.46 361.908C1153.4 361.908 1156.58 358.719 1156.58 354.786C1156.58 350.853 1153.4 347.664 1149.46 347.664C1145.53 347.664 1142.34 350.853 1142.34 354.786C1142.34 358.719 1145.53 361.908 1149.46 361.908Z" fill="#CCE6FF"/>
<path d="M1149.46 417.908C1153.4 417.908 1156.58 414.719 1156.58 410.786C1156.58 406.853 1153.4 403.664 1149.46 403.664C1145.53 403.664 1142.34 406.853 1142.34 410.786C1142.34 414.719 1145.53 417.908 1149.46 417.908Z" fill="#CCE6FF"/>
<path d="M1156.58 466.786C1156.58 470.719 1153.39 473.908 1149.46 473.908C1145.53 473.908 1142.34 470.719 1142.34 466.786C1142.34 462.852 1145.53 459.664 1149.46 459.664C1153.39 459.664 1156.58 462.853 1156.58 466.786Z" fill="#CCE6FF"/>
<path d="M1280 497.977H989.391V514.6H1280V497.977Z" fill="#CCE6FF"/>
<path d="M1280 526.802H989.391V543.425H1280V526.802Z" fill="#CCE6FF"/>
<path d="M1142.34 555.628H989.391V572.251H1142.34V555.628Z" fill="#CCE6FF"/>
<path d="M1277.79 603.588H991.602C990.381 603.588 989.391 602.598 989.391 601.377V595.932C989.391 594.711 990.381 593.721 991.602 593.721H1277.79C1279.01 593.721 1280 594.711 1280 595.932V601.377C1280 602.598 1279.01 603.588 1277.79 603.588Z" fill="#CCE6FF"/>
<path d="M1277.79 623.792H991.602C990.381 623.792 989.391 622.802 989.391 621.581V616.136C989.391 614.915 990.381 613.925 991.602 613.925H1277.79C1279.01 613.925 1280 614.915 1280 616.136V621.581C1280 622.802 1279.01 623.792 1277.79 623.792Z" fill="#CCE6FF"/>
<path d="M1277.79 643.995H991.602C990.381 643.995 989.391 643.005 989.391 641.784V636.339C989.391 635.118 990.381 634.128 991.602 634.128H1277.79C1279.01 634.128 1280 635.118 1280 636.339V641.784C1280 643.005 1279.01 643.995 1277.79 643.995Z" fill="#CCE6FF"/>
<path d="M1277.79 664.199H991.602C990.381 664.199 989.391 663.209 989.391 661.988V656.543C989.391 655.322 990.381 654.332 991.602 654.332H1277.79C1279.01 654.332 1280 655.322 1280 656.543V661.988C1280 663.209 1279.01 664.199 1277.79 664.199Z" fill="#CCE6FF"/>
<path d="M1277.79 684.403H991.602C990.381 684.403 989.391 683.413 989.391 682.192V676.747C989.391 675.526 990.381 674.536 991.602 674.536H1277.79C1279.01 674.536 1280 675.526 1280 676.747V682.192C1280 683.413 1279.01 684.403 1277.79 684.403Z" fill="#CCE6FF"/>
<path d="M1277.79 704.607H991.602C990.381 704.607 989.391 703.617 989.391 702.396V696.951C989.391 695.73 990.381 694.74 991.602 694.74H1277.79C1279.01 694.74 1280 695.73 1280 696.951V702.396C1280 703.617 1279.01 704.607 1277.79 704.607Z" fill="#CCE6FF"/>
<path d="M1134.86 724.81H990.964C990.095 724.81 989.391 724.106 989.391 723.237V716.515C989.391 715.646 990.095 714.942 990.964 714.942H1134.86C1135.73 714.942 1136.43 715.646 1136.43 716.515V723.237C1136.43 724.106 1135.73 724.81 1134.86 724.81Z" fill="#CCE6FF"/>
<path d="M1067.48 844.689H997.316C992.939 844.689 989.391 841.141 989.391 836.764V762.076C989.391 757.699 992.939 754.151 997.316 754.151H1067.48C1071.85 754.151 1075.4 757.699 1075.4 762.076V836.764C1075.4 841.141 1071.85 844.689 1067.48 844.689Z" fill="#CCE6FF"/>
<path d="M1169.78 844.298H1099.62C1095.24 844.298 1091.69 840.75 1091.69 836.372V761.684C1091.69 757.307 1095.24 753.758 1099.62 753.758H1169.78C1174.16 753.758 1177.7 757.306 1177.7 761.684V836.372C1177.7 840.75 1174.16 844.298 1169.78 844.298Z" fill="#CCE6FF"/>
<path d="M1272.08 843.907H1201.91C1197.54 843.907 1193.99 840.359 1193.99 835.981V761.293C1193.99 756.916 1197.54 753.368 1201.91 753.368H1272.08C1276.45 753.368 1280 756.916 1280 761.293V835.981C1280 840.359 1276.45 843.907 1272.08 843.907Z" fill="#CCE6FF"/>
<path d="M1278.7 870.49H990.694C989.974 870.49 989.391 869.907 989.391 869.187V863.224C989.391 862.504 989.974 861.921 990.694 861.921H1278.7C1279.42 861.921 1280 862.504 1280 863.224V869.187C1280 869.907 1279.42 870.49 1278.7 870.49Z" fill="#CCE6FF"/>
<path d="M1278.7 886.485H990.694C989.974 886.485 989.391 885.902 989.391 885.182V879.219C989.391 878.499 989.974 877.916 990.694 877.916H1278.7C1279.42 877.916 1280 878.499 1280 879.219V885.182C1280 885.902 1279.42 886.485 1278.7 886.485Z" fill="#CCE6FF"/>
<path d="M1162.21 902.481H990.399C989.842 902.481 989.391 902.03 989.391 901.473V894.92C989.391 894.363 989.842 893.912 990.399 893.912H1162.21C1162.76 893.912 1163.21 894.363 1163.21 894.92V901.473C1163.21 902.03 1162.76 902.481 1162.21 902.481Z" fill="#CCE6FF"/>
<path d="M622.783 563.851H396.42C390.13 563.851 385.031 558.752 385.031 552.462V404.14C385.031 397.85 390.13 392.751 396.42 392.751H622.782C629.072 392.751 634.171 397.85 634.171 404.14V552.462C634.171 558.752 629.072 563.851 622.783 563.851Z" fill="#3C94F8"/>
<path d="M449.191 493.267C449.191 499.26 448.304 503.916 446.53 507.234C443.239 513.292 436.981 516.32 427.756 516.32C422.433 516.32 417.885 514.878 414.111 511.994C410.337 509.111 408.449 503.98 408.449 496.601V491.526H417.487V496.601C417.487 500.467 418.35 503.376 420.078 505.325C421.806 507.275 424.495 508.249 428.143 508.249C433.276 508.249 436.634 506.493 438.218 502.981C439.186 500.823 439.671 496.747 439.671 490.754V443.439H449.192L449.191 493.267Z" fill="#102A54"/>
<path d="M522.265 453.589C526.969 459.872 529.321 467.911 529.321 477.706C529.321 488.307 526.631 497.119 521.25 504.142C514.935 512.391 505.929 516.514 494.234 516.514C483.311 516.514 474.725 512.906 468.474 505.688C462.899 498.728 460.113 489.932 460.113 479.3C460.113 469.699 462.497 461.483 467.266 454.652C473.387 445.888 482.441 441.506 494.427 441.506C506.96 441.507 516.24 445.535 522.265 453.589ZM513.783 498.842C517.569 492.764 519.462 485.774 519.462 477.874C519.462 469.522 517.279 462.799 512.913 457.704C508.547 452.609 502.578 450.061 495.007 450.061C487.661 450.061 481.668 452.585 477.028 457.631C472.389 462.678 470.069 470.118 470.069 479.953C470.069 487.822 472.058 494.456 476.038 499.857C480.017 505.259 486.469 507.959 495.394 507.959C503.868 507.96 509.997 504.922 513.783 498.842Z" fill="#102A54"/>
<path d="M540.533 443.439H571.23C579.597 443.439 585.549 445.92 589.084 450.882C591.159 453.814 592.197 457.197 592.197 461.031C592.197 465.51 590.924 469.183 588.379 472.05C587.057 473.565 585.157 474.95 582.676 476.206C586.317 477.592 589.039 479.154 590.844 480.894C594.034 483.987 595.628 488.257 595.628 493.701C595.628 498.277 594.185 502.417 591.3 506.122C586.988 511.664 580.131 514.435 570.73 514.435H540.531V443.439H540.533ZM567.636 473.452C571.738 473.452 574.929 472.889 577.208 471.76C580.789 469.988 582.58 466.799 582.58 462.191C582.58 457.551 580.675 454.427 576.867 452.815C574.718 451.913 571.526 451.462 567.294 451.462H549.958V473.452H567.636ZM570.887 506.219C576.839 506.219 581.083 504.512 583.62 501.096C585.214 498.938 586.011 496.328 586.011 493.266C586.011 488.111 583.685 484.599 579.034 482.73C576.562 481.732 573.293 481.232 569.228 481.232H549.958V506.219H570.887Z" fill="#102A54"/>
<path d="M602.872 606.143C601.451 606.143 600.097 605.491 599.183 604.298L564.661 559.226H389.826C382.719 559.226 376.938 553.444 376.938 546.337V398.014C376.938 390.907 382.719 385.125 389.826 385.125H616.188C623.295 385.125 629.077 390.907 629.077 398.014V546.336C629.077 553.443 623.295 559.225 616.188 559.225H607.591V601.448C607.591 603.489 606.342 605.231 604.409 605.887C603.9 606.059 603.382 606.143 602.872 606.143ZM389.826 388.126C384.373 388.126 379.938 392.562 379.938 398.015V546.337C379.938 551.79 384.373 556.226 389.826 556.226H566.141L601.565 602.474C602.247 603.364 603.176 603.136 603.445 603.046C603.714 602.955 604.591 602.57 604.591 601.449V556.226H616.188C621.641 556.226 626.077 551.79 626.077 546.337V398.014C626.077 392.561 621.641 388.125 616.188 388.125L389.826 388.126Z" fill="#102A54"/>
<path d="M1148.88 262.874H922.514C916.224 262.874 911.125 257.775 911.125 251.485V103.163C911.125 96.8734 916.224 91.7744 922.514 91.7744H1148.88C1155.17 91.7744 1160.26 96.8734 1160.26 103.163V251.485C1160.26 257.775 1155.16 262.874 1148.88 262.874Z" fill="#3C94F8"/>
<path d="M975.285 192.291C975.285 198.284 974.398 202.94 972.624 206.258C969.333 212.316 963.075 215.344 953.85 215.344C948.527 215.344 943.979 213.902 940.205 211.018C936.431 208.135 934.543 203.004 934.543 195.625V190.55H943.581V195.625C943.581 199.491 944.444 202.4 946.172 204.349C947.9 206.299 950.589 207.273 954.237 207.273C959.37 207.273 962.729 205.517 964.312 202.005C965.28 199.847 965.765 195.77 965.765 189.777V142.462H975.286V192.291H975.285Z" fill="#102A54"/>
<path d="M1048.36 152.613C1053.06 158.896 1055.42 166.935 1055.42 176.73C1055.42 187.331 1052.72 196.143 1047.34 203.166C1041.03 211.415 1032.02 215.538 1020.33 215.538C1009.41 215.538 1000.82 211.93 994.568 204.712C988.993 197.752 986.207 188.956 986.207 178.324C986.207 168.723 988.591 160.507 993.36 153.676C999.481 144.912 1008.53 140.53 1020.52 140.53C1033.05 140.53 1042.33 144.558 1048.36 152.613ZM1039.88 197.866C1043.66 191.788 1045.56 184.798 1045.56 176.898C1045.56 168.546 1043.37 161.823 1039.01 156.728C1034.64 151.633 1028.67 149.085 1021.1 149.085C1013.75 149.085 1007.76 151.609 1003.12 156.655C998.483 161.702 996.163 169.142 996.163 178.977C996.163 186.846 998.152 193.48 1002.13 198.881C1006.11 204.283 1012.56 206.983 1021.49 206.983C1029.96 206.984 1036.09 203.945 1039.88 197.866Z" fill="#102A54"/>
<path d="M1066.63 142.463H1097.32C1105.69 142.463 1111.64 144.945 1115.18 149.906C1117.25 152.838 1118.29 156.221 1118.29 160.055C1118.29 164.534 1117.02 168.207 1114.47 171.074C1113.15 172.589 1111.25 173.974 1108.77 175.23C1112.41 176.616 1115.13 178.178 1116.94 179.918C1120.13 183.011 1121.72 187.281 1121.72 192.725C1121.72 197.301 1120.28 201.441 1117.39 205.146C1113.08 210.688 1106.22 213.459 1096.82 213.459H1066.62V142.463H1066.63ZM1093.73 172.476C1097.83 172.476 1101.02 171.913 1103.3 170.785C1106.88 169.013 1108.68 165.824 1108.68 161.216C1108.68 156.576 1106.77 153.452 1102.96 151.84C1100.81 150.938 1097.62 150.487 1093.39 150.487H1076.05V172.477H1093.73V172.476ZM1096.98 205.244C1102.93 205.244 1107.18 203.537 1109.71 200.121C1111.31 197.963 1112.1 195.353 1112.1 192.292C1112.1 187.137 1109.78 183.625 1105.13 181.756C1102.66 180.758 1099.39 180.258 1095.32 180.258H1076.05V205.245H1096.98V205.244Z" fill="#102A54"/>
<path d="M1128.96 305.166C1127.54 305.166 1126.19 304.514 1125.28 303.321L1090.75 258.249H915.92C908.813 258.249 903.031 252.467 903.031 245.36V97.0384C903.031 89.9314 908.813 84.1494 915.92 84.1494H1142.28C1149.39 84.1494 1155.17 89.9314 1155.17 97.0384V245.36C1155.17 252.467 1149.39 258.249 1142.28 258.249H1133.68V300.472C1133.68 302.513 1132.44 304.255 1130.5 304.91C1129.99 305.082 1129.47 305.166 1128.96 305.166ZM915.92 87.1504C910.467 87.1504 906.031 91.5864 906.031 97.0394V245.36C906.031 250.813 910.467 255.249 915.92 255.249H1092.24L1127.66 301.497C1128.34 302.388 1129.27 302.159 1129.54 302.069C1129.81 301.978 1130.68 301.593 1130.68 300.472V255.249H1142.28C1147.74 255.249 1152.17 250.813 1152.17 245.36V97.0384C1152.17 91.5854 1147.74 87.1494 1142.28 87.1494L915.92 87.1504Z" fill="#102A54"/>
<path d="M1639.13 357.483H1865.49C1871.78 357.483 1876.88 352.384 1876.88 346.094V197.772C1876.88 191.482 1871.78 186.383 1865.49 186.383H1639.13C1632.84 186.383 1627.74 191.482 1627.74 197.772V346.094C1627.74 352.384 1632.84 357.483 1639.13 357.483Z" fill="#3C94F8"/>
<path d="M1707.02 286.899C1707.02 292.892 1706.14 297.548 1704.36 300.866C1701.07 306.924 1694.81 309.952 1685.59 309.952C1680.27 309.952 1675.72 308.51 1671.94 305.626C1668.17 302.743 1666.28 297.612 1666.28 290.233V285.158H1675.32V290.233C1675.32 294.099 1676.18 297.008 1677.91 298.957C1679.64 300.907 1682.33 301.881 1685.98 301.881C1691.11 301.881 1694.47 300.125 1696.05 296.613C1697.02 294.455 1697.5 290.379 1697.5 284.386V237.071H1707.02L1707.02 286.899Z" fill="#102A54"/>
<path d="M1780.1 247.222C1784.8 253.505 1787.15 261.544 1787.15 271.339C1787.15 281.94 1784.46 290.752 1779.08 297.775C1772.77 306.024 1763.76 310.147 1752.07 310.147C1741.14 310.147 1732.56 306.539 1726.31 299.321C1720.73 292.361 1717.95 283.565 1717.95 272.933C1717.95 263.332 1720.33 255.116 1725.1 248.285C1731.22 239.521 1740.27 235.139 1752.26 235.139C1764.79 235.139 1774.07 239.167 1780.1 247.222ZM1771.62 292.475C1775.4 286.397 1777.29 279.407 1777.29 271.507C1777.29 263.155 1775.11 256.432 1770.75 251.337C1766.38 246.242 1760.41 243.694 1752.84 243.694C1745.49 243.694 1739.5 246.218 1734.86 251.264C1730.22 256.311 1727.9 263.751 1727.9 273.586C1727.9 281.455 1729.89 288.09 1733.87 293.49C1737.85 298.892 1744.3 301.592 1753.23 301.592C1761.7 301.593 1767.83 298.554 1771.62 292.475Z" fill="#102A54"/>
<path d="M1798.37 237.071H1829.07C1837.43 237.071 1843.38 239.552 1846.92 244.514C1848.99 247.446 1850.03 250.829 1850.03 254.663C1850.03 259.142 1848.76 262.815 1846.21 265.682C1844.89 267.197 1842.99 268.582 1840.51 269.838C1844.15 271.224 1846.87 272.786 1848.68 274.526C1851.87 277.619 1853.46 281.889 1853.46 287.333C1853.46 291.909 1852.02 296.049 1849.14 299.754C1844.82 305.296 1837.97 308.067 1828.57 308.067H1798.37L1798.37 237.071ZM1825.47 267.084C1829.57 267.084 1832.77 266.521 1835.04 265.392C1838.63 263.62 1840.42 260.431 1840.42 255.823C1840.42 251.183 1838.51 248.059 1834.7 246.447C1832.55 245.545 1829.36 245.094 1825.13 245.094H1807.79V267.084H1825.47ZM1828.72 299.852C1834.68 299.852 1838.92 298.145 1841.46 294.729C1843.05 292.571 1843.85 289.961 1843.85 286.9C1843.85 281.745 1841.52 278.233 1836.87 276.364C1834.4 275.366 1831.13 274.866 1827.06 274.866H1807.79V299.853H1828.72V299.852Z" fill="#102A54"/>
<path d="M1659.04 399.775C1658.53 399.775 1658.02 399.691 1657.51 399.518C1655.57 398.863 1654.32 397.121 1654.32 395.08V352.857H1645.73C1638.62 352.857 1632.84 347.075 1632.84 339.968V191.647C1632.84 184.54 1638.62 178.758 1645.73 178.758H1872.09C1879.19 178.758 1884.98 184.54 1884.98 191.647V339.969C1884.98 347.076 1879.19 352.858 1872.09 352.858H1697.25L1662.73 397.931C1661.82 399.123 1660.46 399.775 1659.04 399.775ZM1645.73 181.758C1640.27 181.758 1635.84 186.194 1635.84 191.647V339.969C1635.84 345.422 1640.27 349.858 1645.73 349.858H1657.32V395.081C1657.32 396.202 1658.2 396.587 1658.47 396.678C1658.74 396.77 1659.67 396.998 1660.35 396.107L1695.77 349.859H1872.09C1877.54 349.859 1881.98 345.423 1881.98 339.97V191.647C1881.98 186.194 1877.54 181.758 1872.09 181.758H1645.73Z" fill="#102A54"/>
<path d="M1241.09 1068.77C1277.66 1005.56 1287.43 931.89 1268.6 861.332C1249.76 790.773 1204.58 731.773 1141.37 695.199C1078.16 658.625 1004.49 648.855 933.927 667.69C863.369 686.525 804.368 731.71 767.794 794.921C731.22 858.132 721.451 931.802 740.285 1002.36C755.734 1060.23 788.92 1110.32 835.228 1146.65C830.604 1146.91 826.197 1149.41 823.704 1153.72L626.517 1494.52C622.582 1501.32 624.905 1510.02 631.705 1513.95L685.535 1545.1C692.335 1549.03 701.038 1546.71 704.972 1539.91L902.159 1199.11C904.652 1194.81 904.626 1189.74 902.548 1185.6C957.119 1207.64 1017.08 1211.45 1074.95 1196C1145.51 1177.17 1204.51 1131.98 1241.09 1068.77ZM886.046 1136.47C831.389 1104.84 792.32 1053.83 776.034 992.817C759.748 931.808 768.195 868.107 799.82 813.45C831.444 758.794 882.461 719.724 943.47 703.438C1004.48 687.152 1068.18 695.599 1122.84 727.224C1177.49 758.849 1216.56 809.864 1232.85 870.875C1249.14 931.884 1240.69 995.585 1209.06 1050.24C1177.44 1104.9 1126.42 1143.97 1065.41 1160.25C1004.4 1176.54 940.703 1168.09 886.046 1136.47Z" fill="#102A54"/>
<path d="M1164.2 1103.25C1254.8 1012.66 1254.8 865.772 1164.2 775.176C1073.61 684.58 926.721 684.58 836.125 775.176C745.529 865.772 745.529 1012.66 836.125 1103.25C926.721 1193.85 1073.61 1193.85 1164.2 1103.25Z" fill="white"/>
<path opacity="0.61" d="M1164.2 1103.25C1254.8 1012.66 1254.8 865.772 1164.2 775.176C1073.61 684.58 926.721 684.58 836.125 775.176C745.529 865.772 745.529 1012.66 836.125 1103.25C926.721 1193.85 1073.61 1193.85 1164.2 1103.25Z" fill="#CCE6FF"/>
<mask id="mask2_169_734" style="mask-type:luminance" maskUnits="userSpaceOnUse" x="768" y="707" width="465" height="465">
<path d="M1164.2 1103.25C1254.8 1012.66 1254.8 865.771 1164.2 775.175C1073.61 684.579 926.721 684.579 836.125 775.175C745.529 865.771 745.529 1012.66 836.125 1103.25C926.721 1193.85 1073.61 1193.85 1164.2 1103.25Z" fill="white"/>
</mask>
<g mask="url(#mask2_169_734)">
<path opacity="0.26" d="M1111.92 709.154L723.176 872.035L729.368 984.29L1211.51 795.269L1111.92 709.154Z" fill="#3C94F8"/>
</g>
<mask id="mask3_169_734" style="mask-type:luminance" maskUnits="userSpaceOnUse" x="768" y="707" width="465" height="465">
<path d="M1164.2 1103.25C1254.8 1012.66 1254.8 865.771 1164.2 775.175C1073.61 684.579 926.721 684.579 836.125 775.175C745.529 865.771 745.529 1012.66 836.125 1103.25C926.721 1193.85 1073.61 1193.85 1164.2 1103.25Z" fill="white"/>
</mask>
<g mask="url(#mask3_169_734)">
<path opacity="0.18" d="M1276.47 810.233L755.207 1018.95L802.048 1113.41L1312.61 913.248L1276.47 810.233Z" fill="#3C94F8"/>
</g>
<mask id="mask4_169_734" style="mask-type:luminance" maskUnits="userSpaceOnUse" x="768" y="707" width="465" height="465">
<path d="M1164.2 1103.25C1254.8 1012.66 1254.8 865.771 1164.2 775.175C1073.61 684.579 926.721 684.579 836.125 775.175C745.529 865.771 745.529 1012.66 836.125 1103.25C926.721 1193.85 1073.61 1193.85 1164.2 1103.25Z" fill="white"/>
</mask>
<g mask="url(#mask4_169_734)">
<path opacity="0.1" d="M1318.23 943.798L796.973 1152.52L840.07 1202.1L1340.1 1006.11L1318.23 943.798Z" fill="#3C94F8"/>
</g>
<path opacity="0.14" d="M1263.23 1092.76C1299.81 1029.55 1309.58 955.882 1290.74 885.324C1271.91 814.765 1226.72 755.765 1163.51 719.191C1100.3 682.617 1026.63 672.847 956.071 691.683C885.513 710.518 826.512 755.703 789.938 818.914C753.364 882.125 743.595 955.795 762.429 1026.35C777.878 1084.23 811.064 1134.31 857.372 1170.64C852.748 1170.9 848.341 1173.4 845.848 1177.71L648.661 1518.51C644.726 1525.31 647.049 1534.01 653.849 1537.94L707.679 1569.09C714.479 1573.03 723.182 1570.7 727.116 1563.9L924.303 1223.11C926.796 1218.8 926.77 1213.73 924.692 1209.59C979.263 1231.64 1039.23 1235.45 1097.1 1220C1167.66 1201.16 1226.66 1155.97 1263.23 1092.76ZM908.19 1160.46C853.533 1128.83 814.464 1077.82 798.178 1016.81C781.892 955.8 790.339 892.099 821.964 837.442C853.589 782.786 904.605 743.716 965.614 727.43C1026.62 711.144 1090.32 719.591 1144.98 751.216C1199.64 782.841 1238.71 833.856 1254.99 894.867C1271.28 955.876 1262.83 1019.58 1231.21 1074.23C1199.58 1128.89 1148.57 1167.96 1087.56 1184.25C1026.55 1200.53 962.847 1192.08 908.19 1160.46Z" fill="#3C94F8"/>
<path d="M2181.21 729.818H1406.78C1352.67 729.818 1308.81 685.952 1308.81 631.842C1308.81 577.731 1352.67 533.866 1406.78 533.866H2181.21C2235.32 533.866 2279.18 577.731 2279.18 631.842C2279.18 685.952 2235.32 729.818 2181.21 729.818Z" fill="#F4F7FD"/>
<path d="M2167.53 728.333H1393.11C1337.43 728.333 1292.13 683.035 1292.13 627.356C1292.13 571.677 1337.43 526.379 1393.11 526.379H2167.53C2223.21 526.379 2268.51 571.677 2268.51 627.356C2268.51 683.035 2223.21 728.333 2167.53 728.333ZM1393.11 532.38C1340.74 532.38 1298.13 574.986 1298.13 627.357C1298.13 679.727 1340.74 722.334 1393.11 722.334H2167.53C2219.9 722.334 2262.51 679.727 2262.51 627.357C2262.51 574.987 2219.9 532.38 2167.53 532.38H1393.11Z" fill="#102A54"/>
<path d="M1409.43 633.3H1400.06C1397.11 633.3 1394.72 630.911 1394.72 627.964V618.597C1394.72 615.65 1397.11 613.261 1400.06 613.261H1409.43C1412.37 613.261 1414.76 615.65 1414.76 618.597V627.964C1414.76 630.911 1412.37 633.3 1409.43 633.3Z" fill="#102A54"/>
<path d="M1444.56 633.3H1435.2C1432.25 633.3 1429.86 630.911 1429.86 627.964V618.597C1429.86 615.65 1432.25 613.261 1435.2 613.261H1444.56C1447.51 613.261 1449.9 615.65 1449.9 618.597V627.964C1449.9 630.911 1447.51 633.3 1444.56 633.3Z" fill="#102A54"/>
<path d="M1479.7 633.3H1470.33C1467.38 633.3 1464.99 630.911 1464.99 627.964V618.597C1464.99 615.65 1467.38 613.261 1470.33 613.261H1479.7C1482.64 613.261 1485.03 615.65 1485.03 618.597V627.964C1485.03 630.911 1482.64 633.3 1479.7 633.3Z" fill="#102A54"/>
<path d="M1514.83 633.3H1505.46C1502.52 633.3 1500.13 630.911 1500.13 627.964V618.597C1500.13 615.65 1502.52 613.261 1505.46 613.261H1514.83C1517.78 613.261 1520.17 615.65 1520.17 618.597V627.964C1520.17 630.911 1517.78 633.3 1514.83 633.3Z" fill="#102A54"/>
<path d="M1549.96 633.3H1540.6C1537.65 633.3 1535.26 630.911 1535.26 627.964V618.597C1535.26 615.65 1537.65 613.261 1540.6 613.261H1549.96C1552.91 613.261 1555.3 615.65 1555.3 618.597V627.964C1555.3 630.911 1552.91 633.3 1549.96 633.3Z" fill="#102A54"/>
<path d="M1585.1 633.3H1575.73C1572.79 633.3 1570.4 630.911 1570.4 627.964V618.597C1570.4 615.65 1572.79 613.261 1575.73 613.261H1585.1C1588.05 613.261 1590.44 615.65 1590.44 618.597V627.964C1590.44 630.911 1588.05 633.3 1585.1 633.3Z" fill="#102A54"/>
<path d="M1620.23 633.3H1610.87C1607.92 633.3 1605.53 630.911 1605.53 627.964V618.597C1605.53 615.65 1607.92 613.261 1610.87 613.261H1620.23C1623.18 613.261 1625.57 615.65 1625.57 618.597V627.964C1625.57 630.911 1623.18 633.3 1620.23 633.3Z" fill="#102A54"/>
<path d="M1655.37 633.3H1646C1643.06 633.3 1640.67 630.911 1640.67 627.964V618.597C1640.67 615.65 1643.06 613.261 1646 613.261H1655.37C1658.32 613.261 1660.71 615.65 1660.71 618.597V627.964C1660.71 630.911 1658.32 633.3 1655.37 633.3Z" fill="#102A54"/>
<path d="M1690.5 633.3H1681.14C1678.19 633.3 1675.8 630.911 1675.8 627.964V618.597C1675.8 615.65 1678.19 613.261 1681.14 613.261H1690.5C1693.45 613.261 1695.84 615.65 1695.84 618.597V627.964C1695.84 630.911 1693.45 633.3 1690.5 633.3Z" fill="#102A54"/>
<path d="M1725.64 633.3H1716.27C1713.33 633.3 1710.94 630.911 1710.94 627.964V618.597C1710.94 615.65 1713.33 613.261 1716.27 613.261H1725.64C1728.59 613.261 1730.98 615.65 1730.98 618.597V627.964C1730.98 630.911 1728.59 633.3 1725.64 633.3Z" fill="#102A54"/>
<path d="M1760.77 633.3H1751.41C1748.46 633.3 1746.07 630.911 1746.07 627.964V618.597C1746.07 615.65 1748.46 613.261 1751.41 613.261H1760.77C1763.72 613.261 1766.11 615.65 1766.11 618.597V627.964C1766.11 630.911 1763.72 633.3 1760.77 633.3Z" fill="#102A54"/>
<path d="M1795.91 633.3H1786.54C1783.6 633.3 1781.21 630.911 1781.21 627.964V618.597C1781.21 615.65 1783.6 613.261 1786.54 613.261H1795.91C1798.86 613.261 1801.25 615.65 1801.25 618.597V627.964C1801.25 630.911 1798.86 633.3 1795.91 633.3Z" fill="#102A54"/>
<path d="M1831.04 633.3H1821.68C1818.73 633.3 1816.34 630.911 1816.34 627.964V618.597C1816.34 615.65 1818.73 613.261 1821.68 613.261H1831.04C1833.99 613.261 1836.38 615.65 1836.38 618.597V627.964C1836.38 630.911 1833.99 633.3 1831.04 633.3Z" fill="#102A54"/>
<path d="M1866.18 633.3H1856.81C1853.87 633.3 1851.48 630.911 1851.48 627.964V618.597C1851.48 615.65 1853.87 613.261 1856.81 613.261H1866.18C1869.13 613.261 1871.52 615.65 1871.52 618.597V627.964C1871.52 630.911 1869.13 633.3 1866.18 633.3Z" fill="#102A54"/>
<path d="M1901.31 633.3H1891.95C1889 633.3 1886.61 630.911 1886.61 627.964V618.597C1886.61 615.65 1889 613.261 1891.95 613.261H1901.31C1904.26 613.261 1906.65 615.65 1906.65 618.597V627.964C1906.65 630.911 1904.26 633.3 1901.31 633.3Z" fill="#102A54"/>
<path d="M1936.45 633.3H1927.08C1924.14 633.3 1921.75 630.911 1921.75 627.964V618.597C1921.75 615.65 1924.14 613.261 1927.08 613.261H1936.45C1939.4 613.261 1941.79 615.65 1941.79 618.597V627.964C1941.79 630.911 1939.4 633.3 1936.45 633.3Z" fill="#102A54"/>
<path d="M1971.58 633.3H1962.21C1959.27 633.3 1956.88 630.911 1956.88 627.964V618.597C1956.88 615.65 1959.27 613.261 1962.21 613.261H1971.58C1974.53 613.261 1976.92 615.65 1976.92 618.597V627.964C1976.92 630.911 1974.53 633.3 1971.58 633.3Z" fill="#102A54"/>
<path d="M2006.72 633.3H1997.35C1994.4 633.3 1992.02 630.911 1992.02 627.964V618.597C1992.02 615.65 1994.4 613.261 1997.35 613.261H2006.72C2009.67 613.261 2012.05 615.65 2012.05 618.597V627.964C2012.05 630.911 2009.66 633.3 2006.72 633.3Z" fill="#102A54"/>
<path d="M2041.85 633.3H2032.48C2029.54 633.3 2027.15 630.911 2027.15 627.964V618.597C2027.15 615.65 2029.54 613.261 2032.48 613.261H2041.85C2044.8 613.261 2047.19 615.65 2047.19 618.597V627.964C2047.19 630.911 2044.8 633.3 2041.85 633.3Z" fill="#102A54"/>
<path d="M2076.99 633.3H2067.62C2064.67 633.3 2062.29 630.911 2062.29 627.964V618.597C2062.29 615.65 2064.67 613.261 2067.62 613.261H2076.99C2079.94 613.261 2082.32 615.65 2082.32 618.597V627.964C2082.32 630.911 2079.94 633.3 2076.99 633.3Z" fill="#102A54"/>
<path d="M2112.12 633.3H2102.75C2099.81 633.3 2097.42 630.911 2097.42 627.964V618.597C2097.42 615.65 2099.81 613.261 2102.75 613.261H2112.12C2115.07 613.261 2117.46 615.65 2117.46 618.597V627.964C2117.46 630.911 2115.07 633.3 2112.12 633.3Z" fill="#102A54"/>
<path d="M2147.26 633.3H2137.89C2134.94 633.3 2132.55 630.911 2132.55 627.964V618.597C2132.55 615.65 2134.94 613.261 2137.89 613.261H2147.26C2150.2 613.261 2152.59 615.65 2152.59 618.597V627.964C2152.59 630.911 2150.2 633.3 2147.26 633.3Z" fill="#102A54"/>
<path d="M2182.39 633.3H2173.03C2170.08 633.3 2167.69 630.911 2167.69 627.964V618.597C2167.69 615.65 2170.08 613.261 2173.03 613.261H2182.39C2185.34 613.261 2187.73 615.65 2187.73 618.597V627.964C2187.73 630.911 2185.34 633.3 2182.39 633.3Z" fill="#102A54"/>
<path d="M2107.94 891.209C2107.94 891.209 2042.06 1014.71 2031.48 1024.67C2020.91 1034.63 1871.62 1075.72 1871.62 1075.72L1877.51 1097.35C1877.51 1097.35 2062.44 1101.64 2071.86 1097.35C2081.28 1093.06 2135.56 1044.87 2135.56 1044.87L2107.94 891.209Z" fill="#3C94F8"/>
<path d="M2016.96 1632.04L2021.47 1659.17H2055.81L2053.83 1628.09L2016.96 1632.04Z" fill="#FFC0B1"/>
<path d="M1893.48 1626.56L1895.37 1663.51L1926.01 1661.15L1930.56 1626.84L1893.48 1626.56Z" fill="#FFC0B1"/>
<path d="M2158.96 1179.89C2158.96 1179.89 1940.92 1252.88 1908.42 1285.39C1875.91 1317.89 1888.83 1627.85 1888.83 1627.85H1935.46L2001.12 1372.79C2001.12 1372.79 2265.4 1366.92 2293.96 1316.74C2331.64 1250.54 2302.87 1164.35 2302.87 1164.35L2158.96 1179.89Z" fill="#0C203F"/>
<path d="M2172.34 1197.08C2172.34 1197.08 1991.01 1302.68 1967.99 1337.75C1944.96 1372.81 2013.63 1632.39 2013.63 1632.39L2056.1 1627.85L2067.01 1398.68C2067.01 1398.68 2302.09 1344.49 2318.32 1294.36C2339.73 1228.22 2298.06 1156.53 2298.06 1156.53L2172.34 1197.08Z" fill="#102A54"/>
<path d="M1931.14 1653.97C1931.14 1653.97 1903.38 1661.68 1890.52 1653.97L1834.92 1683.02C1827.39 1686.95 1822.67 1694.74 1822.67 1703.24V1703.83H1932.08C1935.38 1703.83 1937.91 1700.91 1937.44 1697.65L1931.14 1653.97Z" fill="#0C203F"/>
<path d="M2057.33 1653.97C2057.33 1653.97 2029.57 1661.68 2016.72 1653.97L1961.11 1683.02C1953.58 1686.95 1948.86 1694.74 1948.86 1703.24V1703.83H2058.27C2061.57 1703.83 2064.1 1700.91 2063.63 1697.65L2057.33 1653.97Z" fill="#102A54"/>
<path d="M2161.4 858.191L2140.46 772.893L2140.46 772.898C2140.43 756.816 2137.28 737.594 2129.28 715.058C2123.98 700.128 2106.95 693.008 2092.55 699.605L2051.96 718.195C2040.9 723.257 2034.98 735.448 2037.87 747.256C2041.29 761.251 2045.37 779.48 2046.67 791.675C2047.81 802.329 2050.76 814.744 2057.79 823.972C2070.08 840.118 2091.74 845.604 2109.56 837.432L2114.62 892.781L2161.4 858.191Z" fill="#FFC0B1"/>
<path d="M2061.07 786.329C2059.79 786.329 2058.55 785.85 2057.59 784.955C2056.4 783.853 2055.81 782.296 2055.97 780.683L2059.2 747.55C2059.26 746.909 2059.84 746.438 2060.47 746.501C2061.12 746.564 2061.59 747.135 2061.52 747.776L2058.29 780.909C2058.2 781.79 2058.53 782.64 2059.18 783.242C2059.82 783.844 2060.7 784.101 2061.57 783.949L2071.66 782.186C2072.3 782.078 2072.9 782.501 2073.01 783.135C2073.12 783.771 2072.7 784.376 2072.06 784.487L2061.97 786.25C2061.67 786.303 2061.37 786.329 2061.07 786.329Z" fill="#102A54"/>
<path d="M2085.71 786.258C2085.71 786.258 2073.38 797.486 2057.61 801.472C2057.61 801.472 2080.51 815.456 2085.71 786.258Z" fill="white"/>
<path d="M2066.39 799.611C2065.93 799.611 2065.49 799.339 2065.31 798.888C2065.06 798.291 2065.35 797.609 2065.94 797.363C2078.24 792.292 2085.67 783.906 2085.74 783.822C2086.17 783.338 2086.9 783.287 2087.39 783.711C2087.87 784.135 2087.92 784.872 2087.5 785.358C2087.19 785.718 2079.67 794.232 2066.83 799.522C2066.69 799.582 2066.53 799.611 2066.39 799.611Z" fill="#102A54"/>
<path d="M2052.62 753.905C2052.62 756.683 2050.8 758.935 2048.56 758.935C2046.33 758.935 2044.51 756.683 2044.51 753.905C2044.51 751.127 2046.33 748.875 2048.56 748.875C2050.8 748.875 2052.62 751.127 2052.62 753.905Z" fill="#102A54"/>
<path d="M2075.71 750.685C2077.95 750.685 2079.76 748.433 2079.76 745.655C2079.76 742.877 2077.95 740.625 2075.71 740.625C2073.47 740.625 2071.66 742.877 2071.66 745.655C2071.66 748.433 2073.47 750.685 2075.71 750.685Z" fill="#102A54"/>
<path d="M2037.15 735.669C2037.15 735.669 2082.01 739.428 2101.64 724.393C2101.64 724.393 2102.05 754.221 2109.15 758.936C2116.25 763.65 2138.02 758.856 2144.81 788.995C2144.81 788.995 2156.76 756.133 2151.33 717.711C2145.9 679.289 2121.68 660.914 2098.29 663.002C2074.91 665.09 1988.65 697.136 2037.15 735.669Z" fill="#102A54"/>
<path d="M2134.04 751.628C2136.72 740.428 2133.57 730.075 2127 728.503C2120.43 726.932 2112.93 734.737 2110.25 745.937C2107.57 757.137 2110.72 767.491 2117.29 769.062C2123.86 770.634 2131.36 762.829 2134.04 751.628Z" fill="#FFC0B1"/>
<path d="M2116.58 757.47C2115.96 757.47 2115.44 756.983 2115.41 756.358C2114.78 743.145 2125.35 732.333 2125.8 731.879C2126.25 731.422 2126.99 731.418 2127.45 731.872C2127.9 732.326 2127.91 733.065 2127.45 733.523C2127.35 733.627 2117.16 744.074 2117.74 756.246C2117.77 756.891 2117.28 757.438 2116.63 757.469C2116.61 757.47 2116.59 757.47 2116.58 757.47Z" fill="#102A54"/>
<path d="M2161.43 845.533C2161.43 845.533 2291.36 900.349 2315.1 1183.41C2315.1 1183.41 2259.09 1217.37 2122.04 1197.65C2122.04 1197.65 2125.72 1167.08 2124.43 1154.51C2123.15 1141.95 2082.43 950.008 2107.94 891.208L2161.43 845.533Z" fill="#3C94F8"/>
<path d="M2109.56 838.6C2109.11 838.6 2108.67 838.332 2108.49 837.886C2108.24 837.292 2108.51 836.608 2109.11 836.357C2109.29 836.277 2122.23 830.528 2129.65 810.317C2129.87 809.712 2130.54 809.401 2131.15 809.624C2131.75 809.846 2132.07 810.518 2131.84 811.123C2124.03 832.396 2110.58 838.269 2110.02 838.509C2109.87 838.571 2109.71 838.6 2109.56 838.6Z" fill="#102A54"/>
<path d="M2158.09 911.536C2158.09 911.536 2117.26 1015.99 2105.17 1031.91C2093.07 1047.84 1908.61 1077.83 1908.61 1077.83L1919.51 1107.82C1919.51 1107.82 2108.7 1118.72 2131.78 1107.82C2154.87 1096.91 2206.66 1059.65 2221.2 1006.95C2235.74 954.245 2204.02 887.91 2158.09 911.536Z" fill="#3C94F8"/>
<path d="M2066.01 1113.85C2004.95 1113.85 1924.53 1109.28 1919.44 1108.98C1918.8 1108.95 1918.31 1108.39 1918.35 1107.75C1918.38 1107.11 1918.91 1106.62 1919.58 1106.65C1921.47 1106.76 2108.73 1117.41 2131.28 1106.76C2150.85 1097.52 2204.94 1061.52 2220.08 1006.64C2220.25 1006.02 2220.9 1005.66 2221.51 1005.83C2222.13 1006 2222.5 1006.64 2222.33 1007.26C2206.95 1062.99 2152.12 1099.5 2132.28 1108.87C2124.38 1112.61 2097.82 1113.85 2066.01 1113.85Z" fill="#102A54"/>
<path d="M1908.61 1079C1908.04 1079 1907.55 1078.59 1907.46 1078.02C1907.35 1077.38 1907.78 1076.78 1908.42 1076.68C1972.07 1066.33 2094.9 1043.51 2104.24 1031.21C2116.1 1015.59 2156.59 912.154 2157 911.111C2157.24 910.51 2157.92 910.213 2158.51 910.448C2159.12 910.683 2159.41 911.36 2159.18 911.961C2157.51 916.232 2118.16 1016.75 2106.1 1032.62C2093.86 1048.73 1916.35 1077.75 1908.8 1078.98C1908.73 1078.99 1908.67 1079 1908.61 1079Z" fill="#102A54"/>
<path d="M2109.56 1025.89C2108.94 1025.89 2108.43 1025.41 2108.4 1024.78C2108.36 1023.96 2104.54 942.603 2108.4 911.393C2108.48 910.753 2109.07 910.304 2109.71 910.377C2110.35 910.456 2110.8 911.039 2110.72 911.68C2106.88 942.693 2110.69 1023.85 2110.73 1024.67C2110.76 1025.32 2110.26 1025.86 2109.62 1025.89C2109.6 1025.89 2109.58 1025.89 2109.56 1025.89Z" fill="#102A54"/>
<path d="M1912.02 1082.86C1912.02 1082.86 1889.75 1077.7 1880.05 1081.51C1876.55 1082.88 1837.26 1114.6 1837.26 1114.6H1846.32H1895.31L1917.77 1103.03L1912.02 1082.86Z" fill="#FFC0B1"/>
<path d="M1872.81 1080.11C1872.81 1080.11 1854.27 1078.71 1848.24 1080.11C1842.21 1081.5 1811.36 1095.6 1811.36 1097.35C1811.36 1099.1 1814.5 1101.51 1818.59 1100.54C1822.69 1099.58 1857.4 1090.12 1857.4 1090.12C1857.4 1090.12 1837.63 1099.82 1834.74 1103.92C1831.85 1108.02 1829.2 1114.6 1829.2 1114.6H1865.59L1877.51 1097.35L1872.81 1080.11Z" fill="#FFC0B1"/>
<path d="M1838.78 1115.6C1838.68 1115.6 1838.58 1115.58 1838.48 1115.55C1837.96 1115.39 1837.66 1114.82 1837.83 1114.3C1837.87 1114.15 1839.01 1110.62 1842.51 1107.12C1845.91 1103.72 1872.57 1085.42 1873.71 1084.64C1874.16 1084.33 1874.78 1084.44 1875.1 1084.9C1875.41 1085.35 1875.29 1085.98 1874.84 1086.29C1874.56 1086.48 1847.19 1105.27 1843.92 1108.54C1840.76 1111.69 1839.75 1114.86 1839.74 1114.9C1839.6 1115.32 1839.21 1115.6 1838.78 1115.6Z" fill="#102A54"/>
<path d="M2208.12 1386.83L2131.79 1703.84H2138.12L2235.36 1385.13L2208.12 1386.83Z" fill="#102A54"/>
<path d="M2315.35 1386.83L2391.69 1703.84H2385.35L2288.11 1385.13L2315.35 1386.83Z" fill="#102A54"/>
<path d="M2141.38 1373.96C2141.38 1373.96 2253.46 1317.54 2306.85 1233.14C2334.86 1188.87 2338.13 1073.1 2361.25 1071.32C2384.37 1069.54 2405.71 1106.89 2412.82 1147.79C2419.94 1188.69 2419.94 1345.85 2368.37 1373.96C2316.8 1402.08 2138.47 1414.53 2126.27 1409.19C2114.07 1403.86 2110 1392.08 2141.38 1373.96Z" fill="#7FC0FF"/>
<path d="M2190.51 1146.25H1397.53C1392.54 1146.25 1388.48 1142.2 1388.48 1137.2C1388.48 1132.21 1392.54 1128.15 1397.53 1128.15H2190.51C2195.51 1128.15 2199.56 1132.21 2199.56 1137.2C2199.56 1142.2 2195.51 1146.25 2190.51 1146.25Z" fill="#7FC0FF"/>
<path d="M1443.97 1703.83H1429.96L1537.79 1146.25H1551.8L1443.97 1703.83Z" fill="#7FC0FF"/>
<path d="M2144.08 1703.83H2158.09L2050.26 1146.25H2036.25L2144.08 1703.83Z" fill="#7FC0FF"/>
<path d="M1685.94 1114.6L1594.3 900.751C1593.36 898.546 1591.19 897.116 1588.79 897.116C1584.48 897.116 1581.58 901.518 1583.28 905.475L1678.7 1128.15H1685.94H1691.75H1905.24C1908.99 1128.15 1912.02 1125.12 1912.02 1121.38C1912.02 1117.63 1908.99 1114.6 1905.24 1114.6H1685.94Z" fill="#102A54"/>
<path d="M1106.39 931.844C1106.39 875.541 1060.74 829.898 1004.44 829.898C948.138 829.898 902.496 875.541 902.496 931.844C902.496 962.412 915.954 989.834 937.263 1008.52C939.123 979.161 959.786 954.913 987.353 947.701C974.654 941.403 965.919 928.312 965.919 913.176C965.919 891.901 983.166 874.653 1004.44 874.653C1025.72 874.653 1042.96 891.9 1042.96 913.176C1042.96 928.313 1034.23 941.403 1021.53 947.701C1049.1 954.913 1069.76 979.16 1071.62 1008.52C1092.93 989.834 1106.39 962.412 1106.39 931.844Z" fill="#80C0FF"/>
<path d="M1021.53 947.701C1034.23 941.403 1042.96 928.312 1042.96 913.176C1042.96 891.901 1025.72 874.653 1004.44 874.653C983.164 874.653 965.918 891.9 965.918 913.176C965.918 928.313 974.652 941.403 987.352 947.701C959.785 954.913 939.122 979.161 937.262 1008.52C955.202 1024.25 978.706 1033.79 1004.44 1033.79C1030.18 1033.79 1053.68 1024.25 1071.62 1008.52C1069.76 979.16 1049.1 954.913 1021.53 947.701Z" fill="#3C94F8"/>
<path d="M2103.78 253.524C2084.37 251.226 2066.78 265.097 2064.48 284.504C2066.78 265.096 2052.91 247.501 2033.5 245.203C2014.09 242.905 1996.5 256.776 1994.2 276.183C1993.93 278.425 1993.89 280.641 1994.04 282.813C1994.79 341.484 2054.91 365.379 2054.91 365.379C2054.91 365.379 2118.94 356.181 2133.37 299.307C2134.02 297.229 2134.5 295.065 2134.76 292.823C2137.06 273.417 2123.19 255.821 2103.78 253.524Z" fill="#80C0FF"/>
</svg>
